<?xml version="1.0" encoding="UTF-8"?>
<!DOCTYPE svg PUBLIC "-//W3C//DTD SVG 1.1//EN" "http://www.w3.org/Graphics/SVG/1.1/DTD/svg11.dtd">
<!-- Creator: CorelDRAW -->
<svg xmlns="http://www.w3.org/2000/svg" xml:space="preserve" width="8.5in" height="11in" version="1.1" style="shape-rendering:geometricPrecision; text-rendering:geometricPrecision; image-rendering:optimizeQuality; fill-rule:evenodd; clip-rule:evenodd"
viewBox="0 0 8500 11000"
 xmlns:xlink="http://www.w3.org/1999/xlink"
 xmlns:xodm="http://www.corel.com/coreldraw/odm/2003">
 <defs>
  <style type="text/css">
   <![CDATA[
    .fil1 {fill:#3D6EE0}
    .fil2 {fill:#CA9755}
    .fil3 {fill:#E9D080}
    .fil4 {fill:#ECCF97}
    .fil5 {fill:#F4D07C}
    .fil0 {fill:#F5F4B3}
    .fil7 {fill:#F4D07C;fill-rule:nonzero}
    .fil6 {fill:#F5F4B3;fill-rule:nonzero}
   ]]>
  </style>
    <mask id="id0">
  <linearGradient id="id1" gradientUnits="userSpaceOnUse" x1="-19443.61" y1="2450.2" x2="-19443.6" y2="1550.37">
   <stop offset="0" style="stop-opacity:1; stop-color:white"/>
   <stop offset="1" style="stop-opacity:0; stop-color:white"/>
  </linearGradient>
     <rect style="fill:url(#id1)" x="-20195.55" y="1550.27" width="1516.93" height="979.11"/>
    </mask>
    <mask id="id2">
  <linearGradient id="id3" gradientUnits="userSpaceOnUse" x1="-20291.36" y1="1434.68" x2="-19558.13" y2="1434.68">
   <stop offset="0" style="stop-opacity:1; stop-color:white"/>
   <stop offset="1" style="stop-opacity:0; stop-color:white"/>
  </linearGradient>
     <rect style="fill:url(#id3)" x="-20324.58" y="1247.68" width="780.48" height="370.74"/>
    </mask>
    <mask id="id4">
  <linearGradient id="id5" gradientUnits="userSpaceOnUse" x1="-18582.81" y1="1434.68" x2="-19316.04" y2="1434.68">
   <stop offset="0" style="stop-opacity:1; stop-color:white"/>
   <stop offset="1" style="stop-opacity:0; stop-color:white"/>
  </linearGradient>
     <rect style="fill:url(#id5)" x="-19330.07" y="1247.68" width="780.49" height="370.74"/>
    </mask>
    <mask id="id6">
  <linearGradient id="id7" gradientUnits="userSpaceOnUse" x1="-19436.88" y1="1164.59" x2="-19436.87" y2="742.43">
   <stop offset="0" style="stop-opacity:1; stop-color:white"/>
   <stop offset="1" style="stop-opacity:0; stop-color:white"/>
  </linearGradient>
     <rect style="fill:url(#id7)" x="-19471.16" y="742.31" width="68.15" height="434.51"/>
    </mask>
    <mask id="id8">
  <linearGradient id="id9" gradientUnits="userSpaceOnUse" x1="-19663.05" y1="1176.73" x2="-19944.62" y2="893.54">
   <stop offset="0" style="stop-opacity:1; stop-color:white"/>
   <stop offset="1" style="stop-opacity:0; stop-color:white"/>
  </linearGradient>
     <rect style="fill:url(#id9)" x="-19974.22" y="875.5" width="359.33" height="301.32"/>
    </mask>
    <mask id="id10">
  <linearGradient id="id11" gradientUnits="userSpaceOnUse" x1="-19211.13" y1="1176.73" x2="-18929.56" y2="893.54">
   <stop offset="0" style="stop-opacity:1; stop-color:white"/>
   <stop offset="1" style="stop-opacity:0; stop-color:white"/>
  </linearGradient>
     <rect style="fill:url(#id11)" x="-19259.28" y="875.5" width="359.33" height="301.32"/>
    </mask>
    <mask id="id12">
  <linearGradient id="id13" gradientUnits="userSpaceOnUse" x1="-19443.41" y1="2195.26" x2="-19443.4" y2="890.67">
   <stop offset="0" style="stop-opacity:1; stop-color:white"/>
   <stop offset="1" style="stop-opacity:0; stop-color:white"/>
  </linearGradient>
     <rect style="fill:url(#id13)" x="-20504.33" y="602.31" width="2134.5" height="1721.78"/>
    </mask>
    <mask id="id14">
  <linearGradient id="id15" gradientUnits="userSpaceOnUse" x1="-20194.65" y1="3385.25" x2="-20194.64" y2="3359.21">
   <stop offset="0" style="stop-opacity:1; stop-color:white"/>
   <stop offset="1" style="stop-opacity:0; stop-color:white"/>
  </linearGradient>
     <rect style="fill:url(#id15)" x="-20502.14" y="3359.2" width="616.69" height="26.1"/>
    </mask>
    <mask id="id16">
  <linearGradient id="id17" gradientUnits="userSpaceOnUse" x1="-19429.65" y1="3128.14" x2="-19429.64" y2="2786.07">
   <stop offset="0" style="stop-opacity:1; stop-color:white"/>
   <stop offset="1" style="stop-opacity:0; stop-color:white"/>
  </linearGradient>
     <rect style="fill:url(#id17)" x="-20480.6" y="2773.2" width="2087.02" height="362.44"/>
    </mask>
    <mask id="id18">
  <linearGradient id="id19" gradientUnits="userSpaceOnUse" x1="-19426.57" y1="3452.7" x2="-19426.56" y2="3289.2">
   <stop offset="0" style="stop-opacity:1; stop-color:white"/>
   <stop offset="1" style="stop-opacity:0; stop-color:white"/>
  </linearGradient>
     <rect style="fill:url(#id19)" x="-19756.18" y="3291.41" width="638.19" height="161.7"/>
    </mask>
    <mask id="id20">
  <linearGradient id="id21" gradientUnits="userSpaceOnUse" x1="-18681.23" y1="3385.25" x2="-18681.21" y2="3359.21">
   <stop offset="0" style="stop-opacity:1; stop-color:white"/>
   <stop offset="1" style="stop-opacity:0; stop-color:white"/>
  </linearGradient>
     <rect style="fill:url(#id21)" x="-18988.71" y="3359.2" width="616.68" height="26.1"/>
    </mask>
 </defs>
 <g id="Layer_x0020_1">
  <metadata id="CorelCorpID_0Corel-Layer"/>
  <g id="_2615789048512">
   <path class="fil0" d="M-19351.86 1702.73l0 826.55 67.95 0 0 -826.55 0 -84.41 0 -67.95 -67.95 0 -170.45 0 -67.95 0 0 67.95 0 84.41 0 826.55 67.95 0 0 -826.55 0 -84.41 170.45 0 0 84.41zm-843.59 0l0 826.55 67.95 0 0 -826.55 -67.95 0zm151.3 0l0 826.55 67.96 0 0 -826.55 -67.96 0zm151.3 0l0 826.55 67.95 0 0 -826.55 -67.95 0zm151.3 0l0 826.55 67.95 0 0 -826.55 -67.95 0zm541 0l0 826.55 67.95 0 0 -826.55 -67.95 0zm151.3 0l0 826.55 67.95 0 0 -826.55 -67.95 0zm151.3 0l0 826.55 67.95 0 0 -826.55 -67.95 0zm151.3 0l0 826.55 67.95 0 0 -826.55 -67.95 0z"/>
   <path class="fil0" d="M-19673.62 1618.32l0 -67.95 -617.74 0 0 67.95 617.74 0zm129.43 -370.55l-747.17 0 -33.12 0 33.12 67.95 706.74 0c7.38,-26.16 21.52,-49.48 40.43,-67.95zm-747.17 219.25l747.17 0c-18.91,-18.47 -33.05,-41.79 -40.43,-67.95l-706.74 0 0 67.95z"/>
   <path class="fil0" d="M-19403.11 808.01l0 -64.98c-11.28,-0.41 -22.6,-0.61 -33.98,-0.61 -11.37,0 -22.7,0.2 -33.98,0.61l0 64.98 0 368.72 67.95 0 0 -368.72z"/>
   <path class="fil1" d="M-19126.9 864.83l-147.85 147.84 0 -190.06c51.02,9.72 100.44,23.93 147.85,42.22zm-215.8 215.8l0 96.1 67.95 -67.95 214.79 -214.79 48.38 -48.38c-21.34,-11.04 -43.17,-21.28 -65.43,-30.67 -62.7,-26.45 -128.91,-46.2 -197.74,-58.35 -22.38,-3.95 -45.04,-7.1 -67.95,-9.42l0 65.3 0 268.17z"/>
   <path class="fil1" d="M-19599.43 1108.77l67.95 67.95 0 -96.1 0 -268.17 0 -65.3c-22.91,2.31 -45.57,5.46 -67.95,9.42 -68.83,12.16 -135.04,31.91 -197.74,58.35 -22.26,9.39 -44.09,19.63 -65.43,30.67l48.38 48.38c21.81,-10.63 44.15,-20.36 66.94,-29.15 -22.8,8.79 -45.13,18.53 -66.94,29.15l214.79 214.79zm-147.84 -243.94c47.4,-18.28 96.83,-32.5 147.84,-42.22l0 190.06 -147.84 -147.84z"/>
   <path class="fil0" d="M-19615 1176.72l-253.72 -253.72 -47.41 -47.41c-19.83,11.99 -39.18,24.7 -58,38.1l46.62 46.62 216.41 216.41 96.1 0z"/>
   <path class="fil1" d="M-19796.66 1176.72l-179.84 -179.84 -46.17 -46.17c-17.6,14.36 -34.67,29.35 -51.16,44.94 -56.84,53.72 -106.88,114.56 -148.71,181.07l77.89 0c34.2,-49.01 73.36,-94.3 116.76,-135.14l135.14 135.14 96.1 0z"/>
   <path class="fil1" d="M-18846.27 1041.59c43.39,40.84 82.56,86.13 116.75,135.14l77.89 0c-41.83,-66.52 -91.87,-127.35 -148.71,-181.07 -16.49,-15.59 -33.56,-30.58 -51.16,-44.94l-46.17 46.17 -179.84 179.84 96.1 0 135.14 -135.14z"/>
   <circle class="fil1" cx="-19437.09" cy="1357.4" r="67.78"/>
   <path class="fil0" d="M-20307.9 1176.72c171.91,-303.09 497.48,-507.59 870.81,-507.59 373.34,0 698.91,204.5 870.81,507.59l75.97 0c-178.03,-341.3 -535.19,-574.31 -946.78,-574.31 -411.59,0 -768.75,233.01 -946.78,574.31l75.96 0zm1811.78 152.27c38.48,106.3 59.46,220.98 59.46,340.57 0,198.44 -57.78,383.4 -157.43,538.95l0 115.48c140.49,-180.71 224.16,-407.8 224.16,-654.43 0,-149.81 -30.87,-292.41 -86.59,-421.79l-39.59 81.22zm-1941.39 340.57c0,-119.58 20.98,-234.27 59.46,-340.57l-39.59 -81.22c-55.72,129.37 -86.59,271.98 -86.59,421.79 0,246.63 83.66,473.71 224.16,654.43l0 -115.48c-99.66,-155.55 -157.43,-340.5 -157.43,-538.94z"/>
   <path class="fil2" style="mask:url(#id0)" d="M-19351.86 1702.73l0 826.55 67.95 0 0 -826.55 0 -84.41 0 -67.95 -67.95 0 -170.45 0 -67.95 0 0 67.95 0 84.41 0 826.55 67.95 0 0 -826.55 0 -84.41 170.45 0 0 84.41zm-843.59 0l0 826.55 67.95 0 0 -826.55 -67.95 0zm151.3 0l0 826.55 67.96 0 0 -826.55 -67.96 0zm151.3 0l0 826.55 67.95 0 0 -826.55 -67.95 0zm151.3 0l0 826.55 67.95 0 0 -826.55 -67.95 0zm541 0l0 826.55 67.95 0 0 -826.55 -67.95 0zm151.3 0l0 826.55 67.95 0 0 -826.55 -67.95 0zm151.3 0l0 826.55 67.95 0 0 -826.55 -67.95 0zm151.3 0l0 826.55 67.95 0 0 -826.55 -67.95 0z"/>
   <path class="fil3" style="mask:url(#id2)" d="M-19673.62 1618.32l0 -67.95 -617.74 0 0 67.95 617.74 0zm129.43 -370.55l-747.17 0 -33.12 0 33.12 67.95 706.74 0c7.38,-26.16 21.52,-49.48 40.43,-67.95zm-747.17 219.25l747.17 0c-18.91,-18.47 -33.05,-41.79 -40.43,-67.95l-706.74 0 0 67.95z"/>
   <path class="fil0" d="M-19200.55 1618.32l0 -67.95 617.74 0 0 67.95 -617.74 0zm-129.43 -370.55l747.17 0 33.13 0 -33.13 67.95 -706.74 0c-7.37,-26.16 -21.52,-49.48 -40.43,-67.95zm747.17 219.25l-747.17 0c18.91,-18.47 33.06,-41.79 40.43,-67.95l706.74 0 0 67.95z"/>
   <path class="fil3" style="mask:url(#id4)" d="M-19200.55 1618.32l0 -67.95 617.74 0 0 67.95 -617.74 0zm-129.43 -370.55l747.17 0 33.13 0 -33.13 67.95 -706.74 0c-7.37,-26.16 -21.52,-49.48 -40.43,-67.95zm747.17 219.25l-747.17 0c18.91,-18.47 33.06,-41.79 40.43,-67.95l706.74 0 0 67.95z"/>
   <path class="fil4" style="mask:url(#id6)" d="M-19403.11 808.01l0 -64.98c-11.28,-0.41 -22.6,-0.61 -33.98,-0.61 -11.37,0 -22.7,0.2 -33.98,0.61l0 64.98 0 368.72 67.95 0 0 -368.72z"/>
   <path class="fil4" style="mask:url(#id8)" d="M-19615 1176.72l-253.72 -253.72 -47.41 -47.41c-19.83,11.99 -39.18,24.7 -58,38.1l46.62 46.62 216.41 216.41 96.1 0z"/>
   <path class="fil0" d="M-19259.18 1176.72l253.72 -253.72 47.41 -47.41c19.83,11.99 39.18,24.7 58,38.1l-46.62 46.62 -216.41 216.41 -96.1 0z"/>
   <path class="fil4" style="mask:url(#id10)" d="M-19259.18 1176.72l253.72 -253.72 47.41 -47.41c19.83,11.99 39.18,24.7 58,38.1l-46.62 46.62 -216.41 216.41 -96.1 0z"/>
   <path class="fil5" style="mask:url(#id12)" d="M-20307.9 1176.72c171.91,-303.09 497.48,-507.59 870.81,-507.59 373.34,0 698.91,204.5 870.81,507.59l75.97 0c-178.03,-341.3 -535.19,-574.31 -946.78,-574.31 -411.59,0 -768.75,233.01 -946.78,574.31l75.96 0zm1811.78 152.27c38.48,106.3 59.46,220.98 59.46,340.57 0,198.44 -57.78,383.4 -157.43,538.95l0 115.48c140.49,-180.71 224.16,-407.8 224.16,-654.43 0,-149.81 -30.87,-292.41 -86.59,-421.79l-39.59 81.22zm-1941.39 340.57c0,-119.58 20.98,-234.27 59.46,-340.57l-39.59 -81.22c-55.72,129.37 -86.59,271.98 -86.59,421.79 0,246.63 83.66,473.71 224.16,654.43l0 -115.48c-99.66,-155.55 -157.43,-340.5 -157.43,-538.94z"/>
  </g>
  <g id="_2615789050000">
   <rect class="fil0" x="-20502.14" y="3359.21" width="616.68" height="26.1"/>
   <rect class="fil0" x="-18988.71" y="3359.21" width="616.68" height="26.1"/>
   <path class="fil6" d="M-20263.53 2943.96c21.91,-11.45 40.33,-36.34 40.33,-73.68 0,-50.78 -22.4,-90.11 -95.09,-90.11l-162.3 0 0 348.5 172.26 0c60.74,0 103.56,-33.85 104.05,-99.57 0.5,-52.77 -30.87,-78.66 -59.24,-85.13zm-80.15 -103.06c33.85,0 50.78,12.44 50.78,35.35 0,24.39 -15.93,37.84 -50.78,37.84l-66.71 0 0 -73.19 66.71 0zm-66.71 226.52l0 -92.6 90.61 0c35.35,0 45.8,27.39 45.8,45.8 0,21.91 -9.96,46.8 -44.31,46.8l-92.1 0zm285.77 61.24l27.88 -86.63 118.49 0 28.37 86.63 71.69 0 -99.07 -348.5 -119.99 0 -99.07 348.5 71.69 0zm82.15 -292.74l9.96 0 40.33 148.86 -90.61 0 40.33 -148.86zm414.22 108.04c21.91,-11.45 40.33,-36.34 40.33,-73.68 0,-50.78 -22.41,-90.11 -95.09,-90.11l-162.3 0 0 348.5 172.26 0c60.74,0 103.56,-33.85 104.05,-99.57 0.5,-52.77 -30.87,-78.66 -59.24,-85.13zm-80.15 -103.06c33.85,0 50.78,12.44 50.78,35.35 0,24.39 -15.93,37.84 -50.78,37.84l-66.71 0 0 -73.19 66.71 0zm-66.71 226.52l0 -92.6 90.61 0c35.35,0 45.8,27.39 45.8,45.8 0,21.91 -9.96,46.8 -44.31,46.8l-92.1 0zm380.36 61.24l0 -125.96 103.06 -222.54 -78.66 0 -58.25 152.35 -2.99 0 -57.75 -152.35 -79.16 0 103.56 222.54 0 125.96 70.2 0zm206.11 -348.5l-70.2 0 0 348.5 200.14 0 0 -61.24 -129.94 0 0 -287.26zm297.72 355.47c108.53,0 165.29,-77.17 165.29,-181.22 0,-104.05 -56.76,-181.22 -165.29,-181.22 -109.53,0 -165.79,77.17 -165.79,181.22 0,104.05 56.26,181.22 165.79,181.22zm0 -61.24c-60.74,0 -95.59,-46.3 -95.59,-119.98 0,-63.23 26.39,-119.98 95.09,-119.98 68.7,0 95.09,56.76 95.09,119.98 0,62.23 -29.87,119.98 -94.59,119.98zm420.69 -6.97l-75.18 -287.26 -130.94 0 0 348.5 72.19 0 0 -287.76 5.98 0 69.2 287.76 135.42 0 0 -348.5 -70.2 0 0 287.26 -6.47 0z"/>
   <path class="fil6" d="M-19662.43 3422.08l-34.2 -130.67 -59.56 0 0 158.53 32.84 0 0 -130.9 2.72 0 31.48 130.9 61.6 0 0 -158.53 -31.93 0 0 130.67 -2.94 0zm113.69 31.03c32.16,0 52.77,-19.25 57.3,-43.26l-28.99 0c-2.94,11.78 -15.17,17.21 -28.31,17.21 -20.61,0 -30.8,-15.17 -30.12,-31.25l85.15 0c2.26,0 3.4,-0.91 3.4,-3.4 2.04,-38.5 -20.16,-66.13 -58.43,-66.13 -40.31,0 -61.37,32.38 -61.37,63.41 0,30.8 21.06,63.41 61.37,63.41zm-28.54 -77.45c2.49,-13.36 13.81,-21.74 27.63,-21.74 13.81,0 26.27,7.48 28.54,21.74l-56.17 0zm148.34 -0.46l-0.68 0 -25.36 -45.97 -31.48 0 33.29 60.47 -33.29 60.24 31.48 0 25.36 -45.97 0.91 0 25.37 45.97 31.48 0 -33.52 -60.24 33.29 -60.47 -31.48 0 -25.36 45.97zm152.41 -45.97l0 66.13c0,19.93 -14.04,29.89 -29.22,29.89 -15.85,0 -22.65,-11.32 -22.42,-31.48l0 -64.54 -31.93 0 0 69.76c0,29.44 9.51,54.13 46.43,54.13 13.81,0 32.84,-9.74 37.14,-18.35l0 15.17 31.93 0 0 -120.71 -31.93 0zm158.53 88.33c0,-23.1 -20.15,-32.61 -40.08,-36.92 -17.44,-3.62 -33.29,-7.47 -33.29,-16.31 0,-7.7 7.7,-11.09 21.06,-10.64 14.04,0.22 20.61,8.83 19.25,17.67l30.35 0c0,-25.14 -18.12,-45.07 -50.96,-45.07 -28.99,0 -50.5,12 -51.18,35.33 -0.68,23.56 16.3,30.57 36.69,36.69 17.67,4.98 37.37,7.93 37.37,16.53 0,8.38 -7.47,11.55 -20.61,11.32 -13.14,-0.22 -25.37,-4.3 -25.37,-18.34l-31.7 0c0,27.4 24.46,45.3 59.33,45.3 31.25,0 49.14,-9.97 49.14,-35.56z"/>
   <polygon class="fil5" style="mask:url(#id14)" points="-20502.14,3359.2 -19885.46,3359.2 -19885.46,3385.3 -20502.14,3385.3 "/>
   <path class="fil7" style="mask:url(#id16)" d="M-20263.53 2943.96c21.91,-11.45 40.33,-36.34 40.33,-73.68 0,-50.78 -22.4,-90.11 -95.09,-90.11l-162.3 0 0 348.5 172.26 0c60.74,0 103.56,-33.85 104.05,-99.57 0.5,-52.77 -30.87,-78.66 -59.24,-85.13zm-80.15 -103.06c33.85,0 50.78,12.44 50.78,35.35 0,24.39 -15.93,37.84 -50.78,37.84l-66.71 0 0 -73.19 66.71 0zm-66.71 226.52l0 -92.6 90.61 0c35.35,0 45.8,27.39 45.8,45.8 0,21.91 -9.96,46.8 -44.31,46.8l-92.1 0zm285.77 61.24l27.88 -86.63 118.49 0 28.37 86.63 71.69 0 -99.07 -348.5 -119.99 0 -99.07 348.5 71.69 0zm82.15 -292.74l9.96 0 40.33 148.86 -90.61 0 40.33 -148.86zm414.22 108.04c21.91,-11.45 40.33,-36.34 40.33,-73.68 0,-50.78 -22.41,-90.11 -95.09,-90.11l-162.3 0 0 348.5 172.26 0c60.74,0 103.56,-33.85 104.05,-99.57 0.5,-52.77 -30.87,-78.66 -59.24,-85.13zm-80.15 -103.06c33.85,0 50.78,12.44 50.78,35.35 0,24.39 -15.93,37.84 -50.78,37.84l-66.71 0 0 -73.19 66.71 0zm-66.71 226.52l0 -92.6 90.61 0c35.35,0 45.8,27.39 45.8,45.8 0,21.91 -9.96,46.8 -44.31,46.8l-92.1 0zm380.36 61.24l0 -125.96 103.06 -222.54 -78.66 0 -58.25 152.35 -2.99 0 -57.75 -152.35 -79.16 0 103.56 222.54 0 125.96 70.2 0zm206.11 -348.5l-70.2 0 0 348.5 200.14 0 0 -61.24 -129.94 0 0 -287.26zm297.72 355.47c108.53,0 165.29,-77.17 165.29,-181.22 0,-104.05 -56.76,-181.22 -165.29,-181.22 -109.53,0 -165.79,77.17 -165.79,181.22 0,104.05 56.26,181.22 165.79,181.22zm0 -61.24c-60.74,0 -95.59,-46.3 -95.59,-119.98 0,-63.23 26.39,-119.98 95.09,-119.98 68.7,0 95.09,56.76 95.09,119.98 0,62.23 -29.87,119.98 -94.59,119.98zm420.69 -6.97l-75.18 -287.26 -130.94 0 0 348.5 72.19 0 0 -287.76 5.98 0 69.2 287.76 135.42 0 0 -348.5 -70.2 0 0 287.26 -6.47 0z"/>
   <path class="fil7" style="mask:url(#id18)" d="M-19662.43 3422.08l-34.2 -130.67 -59.56 0 0 158.53 32.84 0 0 -130.9 2.72 0 31.48 130.9 61.6 0 0 -158.53 -31.93 0 0 130.67 -2.94 0zm113.69 31.03c32.16,0 52.77,-19.25 57.3,-43.26l-28.99 0c-2.94,11.78 -15.17,17.21 -28.31,17.21 -20.61,0 -30.8,-15.17 -30.12,-31.25l85.15 0c2.26,0 3.4,-0.91 3.4,-3.4 2.04,-38.5 -20.16,-66.13 -58.43,-66.13 -40.31,0 -61.37,32.38 -61.37,63.41 0,30.8 21.06,63.41 61.37,63.41zm-28.54 -77.45c2.49,-13.36 13.81,-21.74 27.63,-21.74 13.81,0 26.27,7.48 28.54,21.74l-56.17 0zm148.34 -0.46l-0.68 0 -25.36 -45.97 -31.48 0 33.29 60.47 -33.29 60.24 31.48 0 25.36 -45.97 0.91 0 25.37 45.97 31.48 0 -33.52 -60.24 33.29 -60.47 -31.48 0 -25.36 45.97zm152.41 -45.97l0 66.13c0,19.93 -14.04,29.89 -29.22,29.89 -15.85,0 -22.65,-11.32 -22.42,-31.48l0 -64.54 -31.93 0 0 69.76c0,29.44 9.51,54.13 46.43,54.13 13.81,0 32.84,-9.74 37.14,-18.35l0 15.17 31.93 0 0 -120.71 -31.93 0zm158.53 88.33c0,-23.1 -20.15,-32.61 -40.08,-36.92 -17.44,-3.62 -33.29,-7.47 -33.29,-16.31 0,-7.7 7.7,-11.09 21.06,-10.64 14.04,0.22 20.61,8.83 19.25,17.67l30.35 0c0,-25.14 -18.12,-45.07 -50.96,-45.07 -28.99,0 -50.5,12 -51.18,35.33 -0.68,23.56 16.3,30.57 36.69,36.69 17.67,4.98 37.37,7.93 37.37,16.53 0,8.38 -7.47,11.55 -20.61,11.32 -13.14,-0.22 -25.37,-4.3 -25.37,-18.34l-31.7 0c0,27.4 24.46,45.3 59.33,45.3 31.25,0 49.14,-9.97 49.14,-35.56z"/>
   <polygon class="fil5" style="mask:url(#id20)" points="-18988.71,3359.2 -18372.03,3359.2 -18372.03,3385.3 -18988.71,3385.3 "/>
  </g>
 </g>
</svg>
