<?xml version="1.0" encoding="UTF-8"?>
<!DOCTYPE svg PUBLIC "-//W3C//DTD SVG 1.1//EN" "http://www.w3.org/Graphics/SVG/1.1/DTD/svg11.dtd">
<!-- Creator: CorelDRAW -->
<svg xmlns="http://www.w3.org/2000/svg" xml:space="preserve" width="8.5in" height="11in" version="1.1" style="shape-rendering:geometricPrecision; text-rendering:geometricPrecision; image-rendering:optimizeQuality; fill-rule:evenodd; clip-rule:evenodd"
viewBox="0 0 8500 11000"
 xmlns:xlink="http://www.w3.org/1999/xlink"
 xmlns:xodm="http://www.corel.com/coreldraw/odm/2003">
 <defs>
  <style type="text/css">
   <![CDATA[
    .fil0 {fill:#0D0D0D}
    .fil1 {fill:#0D0D0D;fill-rule:nonzero}
   ]]>
  </style>
 </defs>
 <g id="Layer_x0020_1">
  <metadata id="CorelCorpID_0Corel-Layer"/>
  <g id="_2615844321616">
   <g>
    <polygon class="fil0" points="-19226.26,5554.64 -18608.52,5554.64 -18608.52,5486.69 -19226.26,5486.69 "/>
    <polygon class="fil0" points="-18772.38,5639.06 -18772.38,6465.59 -18704.43,6465.59 -18704.43,5639.06 "/>
    <polygon class="fil0" points="-18923.68,5639.06 -18923.68,6465.59 -18855.72,6465.59 -18855.72,5639.06 "/>
    <polygon class="fil0" points="-19074.98,5639.06 -19074.98,6465.59 -19007.02,6465.59 -19007.02,5639.06 "/>
    <polygon class="fil0" points="-19226.27,5639.06 -19226.27,6465.59 -19158.32,6465.59 -19158.32,5639.06 "/>
    <polygon class="fil0" points="-19377.57,5639.06 -19377.57,6465.59 -19309.61,6465.59 -19309.61,5639.06 -19309.61,5554.64 -19309.61,5486.69 -19377.57,5486.69 -19548.02,5486.69 -19615.97,5486.69 -19615.97,5554.64 -19615.97,5639.06 -19615.97,6465.59 -19548.02,6465.59 -19548.02,5639.06 -19548.02,5554.64 -19377.57,5554.64 "/>
    <polygon class="fil0" points="-19767.27,5639.06 -19767.27,6465.59 -19699.31,6465.59 -19699.31,5639.06 "/>
    <polygon class="fil0" points="-19918.56,5639.06 -19918.56,6465.59 -19850.61,6465.59 -19850.61,5639.06 "/>
    <polygon class="fil0" points="-20069.86,5639.06 -20069.86,6465.59 -20001.91,6465.59 -20001.91,5639.06 "/>
    <polygon class="fil0" points="-20221.16,5639.06 -20221.16,6465.59 -20153.2,6465.59 -20153.2,5639.06 "/>
    <polygon class="fil0" points="-19699.33,5554.64 -19699.33,5486.69 -20317.07,5486.69 -20317.07,5554.64 "/>
    <path class="fil0" d="M-19355.68 5403.35l747.16 0 0 -67.95 -706.73 0c-7.38,26.16 -21.52,49.48 -40.43,67.95z"/>
    <path class="fil0" d="M-20317.07 5403.35l747.17 0c-18.91,-18.48 -33.06,-41.8 -40.43,-67.95l-706.74 0 0 67.95z"/>
    <path class="fil0" d="M-19569.9 5184.1l-747.17 0 -33.12 0 33.12 67.95 706.74 0c7.37,-26.16 21.52,-49.48 40.43,-67.95z"/>
    <path class="fil0" d="M-18608.52 5252.05l33.13 -67.95 -33.13 0 -747.16 0c18.91,18.47 33.05,41.79 40.43,67.95l706.73 0z"/>
    <path class="fil0" d="M-19428.81 4744.33l0 -64.98c-11.28,-0.41 -22.6,-0.61 -33.98,-0.61 -11.37,0 -22.7,0.2 -33.98,0.61l0 64.98 0 368.72 67.95 0 0 -368.72z"/>
    <path class="fil0" d="M-19152.61 4801.15l-147.84 147.84 0 -190.06c51.02,9.72 100.44,23.94 147.84,42.22zm-215.8 215.8l0 96.1 67.95 -67.95 214.79 -214.79 48.38 -48.38c-21.34,-11.04 -43.16,-21.28 -65.43,-30.67 -62.69,-26.44 -128.91,-46.2 -197.74,-58.35 -22.39,-3.95 -45.05,-7.1 -67.95,-9.42l0 65.3 0 268.17z"/>
    <path class="fil0" d="M-19625.13 5045.09l67.95 67.95 0 -96.1 0 -268.17 0 -65.3c-22.91,2.31 -45.57,5.46 -67.95,9.42 -68.83,12.16 -135.04,31.91 -197.74,58.35 -22.27,9.39 -44.09,19.63 -65.43,30.67l48.38 48.38 214.79 214.79zm-147.84 -243.94c47.4,-18.28 96.82,-32.5 147.84,-42.22l0 190.06 -147.84 -147.84zm0 0c-22.8,8.79 -45.13,18.53 -66.95,29.15 21.82,-10.63 44.15,-20.36 66.95,-29.15z"/>
    <path class="fil0" d="M-19772.98 4801.15l-49.9 -49.9c-22.27,9.39 -44.09,19.63 -65.43,30.67l48.38 48.38c21.82,-10.63 44.15,-20.36 66.95,-29.15z"/>
    <path class="fil0" d="M-19640.7 5113.05l-253.72 -253.72 -47.41 -47.41c-19.83,11.99 -39.18,24.7 -58,38.1l46.62 46.61 216.41 216.41 96.1 0z"/>
    <path class="fil0" d="M-19822.36 5113.05l-179.84 -179.84 -46.17 -46.17c-17.6,14.36 -34.67,29.35 -51.16,44.94 -56.84,53.72 -106.88,114.56 -148.71,181.07l77.89 0c34.2,-49.01 73.36,-94.3 116.76,-135.14l135.14 135.14 96.1 0z"/>
    <path class="fil0" d="M-18972.37 4896.64l46.61 -46.61c-18.82,-13.4 -38.17,-26.11 -58,-38.1l-47.41 47.41 -253.72 253.72 96.1 0 216.41 -216.41z"/>
    <path class="fil0" d="M-18871.98 4977.91c43.39,40.84 82.56,86.13 116.75,135.14l77.89 0c-41.83,-66.52 -91.87,-127.35 -148.7,-181.07 -16.5,-15.59 -33.56,-30.58 -51.17,-44.94l-46.17 46.17 -179.84 179.84 96.1 0 135.14 -135.14z"/>
    <circle class="fil0" cx="-19462.79" cy="5293.72" r="67.78"/>
    <path class="fil0" d="M-20333.61 5113.05c171.91,-303.09 497.48,-507.59 870.81,-507.59 373.33,0 698.91,204.5 870.81,507.59l75.97 0c-178.03,-341.3 -535.19,-574.31 -946.78,-574.31 -411.59,0 -768.75,233.01 -946.78,574.31l75.96 0z"/>
    <path class="fil0" d="M-20463.22 5605.88c0,-119.58 20.98,-234.26 59.46,-340.57l-39.59 -81.22c-55.72,129.37 -86.59,271.97 -86.59,421.78 0,246.63 83.67,473.71 224.16,654.43l0 -115.48c-99.65,-155.55 -157.43,-340.5 -157.43,-538.94z"/>
    <path class="fil0" d="M-18521.83 5265.32c38.48,106.3 59.46,220.98 59.46,340.56 0,198.44 -57.78,383.4 -157.43,538.95l0 115.48c140.49,-180.71 224.15,-407.8 224.15,-654.43 0,-149.81 -30.87,-292.41 -86.59,-421.78l-39.59 81.22z"/>
   </g>
   <g>
    <rect class="fil0" x="-19014.3" y="7295.52" width="616.56" height="26.1"/>
    <path class="fil1" d="M-20289.24 6880.28c21.91,-11.45 40.33,-36.34 40.33,-73.68 0,-50.78 -22.4,-90.11 -95.09,-90.11l-162.3 0 0 348.5 172.26 0c60.74,0 103.56,-33.85 104.05,-99.57 0.5,-52.77 -30.87,-78.66 -59.24,-85.13zm-80.15 -103.06c33.85,0 50.78,12.44 50.78,35.35 0,24.39 -15.93,37.83 -50.78,37.83l-66.71 0 0 -73.19 66.71 0zm-66.71 226.52l0 -92.6 90.61 0c35.35,0 45.8,27.38 45.8,45.8 0,21.91 -9.96,46.8 -44.31,46.8l-92.1 0zm285.77 61.24l27.88 -86.63 118.49 0 28.38 86.63 71.69 0 -99.07 -348.5 -119.99 0 -99.07 348.5 71.69 0zm82.15 -292.74l9.96 0 40.33 148.86 -90.61 0 40.33 -148.86zm414.22 108.03c21.91,-11.45 40.33,-36.34 40.33,-73.68 0,-50.78 -22.41,-90.11 -95.09,-90.11l-162.3 0 0 348.5 172.26 0c60.74,0 103.56,-33.85 104.05,-99.57 0.5,-52.77 -30.87,-78.66 -59.24,-85.13zm-80.15 -103.06c33.85,0 50.78,12.44 50.78,35.35 0,24.39 -15.93,37.83 -50.78,37.83l-66.72 0 0 -73.19 66.72 0zm-66.72 226.52l0 -92.6 90.61 0c35.35,0 45.8,27.38 45.8,45.8 0,21.91 -9.96,46.8 -44.31,46.8l-92.11 0zm380.36 61.24l0 -125.96 103.06 -222.54 -78.66 0 -58.25 152.34 -2.98 0 -57.75 -152.34 -79.16 0 103.56 222.54 0 125.96 70.2 0zm206.11 -348.5l-70.2 0 0 348.5 200.14 0 0 -61.24 -129.94 0 0 -287.26zm297.72 355.47c108.53,0 165.29,-77.17 165.29,-181.22 0,-104.05 -56.76,-181.22 -165.29,-181.22 -109.53,0 -165.79,77.17 -165.79,181.22 0,104.05 56.26,181.22 165.79,181.22zm0 -61.24c-60.74,0 -95.59,-46.3 -95.59,-119.98 0,-63.23 26.39,-119.98 95.09,-119.98 68.7,0 95.09,56.76 95.09,119.98 0,62.23 -29.87,119.98 -94.59,119.98zm420.69 -6.97l-75.18 -287.26 -130.94 0 0 348.5 72.19 0 0 -287.76 5.98 0 69.2 287.76 135.42 0 0 -348.5 -70.2 0 0 287.26 -6.47 0z"/>
    <path class="fil1" d="M-19688.13 7358.39l-34.2 -130.67 -59.56 0 0 158.53 32.84 0 0 -130.9 2.72 0 31.48 130.9 61.6 0 0 -158.53 -31.93 0 0 130.67 -2.94 0zm113.69 31.03c32.16,0 52.76,-19.25 57.3,-43.26l-28.99 0c-2.94,11.78 -15.17,17.21 -28.31,17.21 -20.61,0 -30.8,-15.17 -30.12,-31.25l85.15 0c2.26,0 3.4,-0.91 3.4,-3.4 2.04,-38.5 -20.16,-66.13 -58.43,-66.13 -40.31,0 -61.37,32.38 -61.37,63.41 0,30.8 21.06,63.41 61.37,63.41zm-28.54 -77.45c2.49,-13.36 13.81,-21.74 27.63,-21.74 13.81,0 26.27,7.48 28.53,21.74l-56.16 0zm148.34 -0.46l-0.68 0 -25.37 -45.97 -31.48 0 33.29 60.47 -33.29 60.24 31.48 0 25.37 -45.97 0.91 0 25.36 45.97 31.48 0 -33.52 -60.24 33.29 -60.47 -31.48 0 -25.36 45.97zm152.41 -45.97l0 66.13c0,19.93 -14.04,29.89 -29.22,29.89 -15.85,0 -22.65,-11.32 -22.42,-31.48l0 -64.54 -31.93 0 0 69.75c0,29.44 9.51,54.13 46.43,54.13 13.81,0 32.84,-9.74 37.15,-18.34l0 15.17 31.93 0 0 -120.71 -31.93 0zm158.53 88.32c0,-23.1 -20.16,-32.61 -40.09,-36.91 -17.44,-3.63 -33.29,-7.47 -33.29,-16.31 0,-7.7 7.7,-11.09 21.06,-10.64 14.04,0.22 20.61,8.83 19.25,17.66l30.35 0c0,-25.13 -18.12,-45.06 -50.96,-45.06 -28.98,0 -50.5,12 -51.18,35.33 -0.68,23.55 16.31,30.57 36.69,36.69 17.67,4.98 37.37,7.93 37.37,16.53 0,8.38 -7.47,11.55 -20.61,11.32 -13.14,-0.23 -25.37,-4.3 -25.37,-18.34l-31.7 0c0,27.4 24.46,45.29 59.33,45.29 31.25,0 49.15,-9.96 49.15,-35.56z"/>
    <rect class="fil0" x="-20527.84" y="7295.52" width="616.56" height="26.1"/>
   </g>
  </g>
 </g>
</svg>
