<?xml version="1.0" encoding="UTF-8"?>
<!DOCTYPE svg PUBLIC "-//W3C//DTD SVG 1.1//EN" "http://www.w3.org/Graphics/SVG/1.1/DTD/svg11.dtd">
<!-- Creator: CorelDRAW -->
<svg xmlns="http://www.w3.org/2000/svg" xml:space="preserve" width="8.5in" height="11in" version="1.1" style="shape-rendering:geometricPrecision; text-rendering:geometricPrecision; image-rendering:optimizeQuality; fill-rule:evenodd; clip-rule:evenodd"
viewBox="0 0 8500 11000"
 xmlns:xlink="http://www.w3.org/1999/xlink"
 xmlns:xodm="http://www.corel.com/coreldraw/odm/2003">
 <defs>
  <style type="text/css">
   <![CDATA[
    .fil1 {fill:#3D6EE0}
    .fil2 {fill:#CA9755}
    .fil3 {fill:#E9D080}
    .fil4 {fill:#ECCF97}
    .fil5 {fill:#F4D07C}
    .fil0 {fill:#F5F4B3}
    .fil7 {fill:#F4D07C;fill-rule:nonzero}
    .fil6 {fill:#F5F4B3;fill-rule:nonzero}
   ]]>
  </style>
     <mask id="id0">
  <linearGradient id="id1" gradientUnits="userSpaceOnUse" x1="-19223.13" y1="2978.27" x2="-19223.13" y2="1969.57">
   <stop offset="0" style="stop-opacity:1; stop-color:white"/>
   <stop offset="1" style="stop-opacity:0; stop-color:white"/>
  </linearGradient>
      <rect style="fill:url(#id1)" x="-20066.04" y="1969.47" width="1700.44" height="1097.55"/>
     </mask>
     <mask id="id2">
  <linearGradient id="id3" gradientUnits="userSpaceOnUse" x1="-20173.46" y1="1839.88" x2="-19351.51" y2="1839.88">
   <stop offset="0" style="stop-opacity:1; stop-color:white"/>
   <stop offset="1" style="stop-opacity:0; stop-color:white"/>
  </linearGradient>
      <rect style="fill:url(#id3)" x="-20210.69" y="1630.26" width="874.89" height="415.57"/>
     </mask>
     <mask id="id4">
  <linearGradient id="id5" gradientUnits="userSpaceOnUse" x1="-18258.19" y1="1839.88" x2="-19080.13" y2="1839.88">
   <stop offset="0" style="stop-opacity:1; stop-color:white"/>
   <stop offset="1" style="stop-opacity:0; stop-color:white"/>
  </linearGradient>
      <rect style="fill:url(#id5)" x="-19095.85" y="1630.26" width="874.89" height="415.57"/>
     </mask>
     <mask id="id6">
  <linearGradient id="id7" gradientUnits="userSpaceOnUse" x1="-19215.59" y1="1537.11" x2="-19215.58" y2="1063.88">
   <stop offset="0" style="stop-opacity:1; stop-color:white"/>
   <stop offset="1" style="stop-opacity:0; stop-color:white"/>
  </linearGradient>
      <rect style="fill:url(#id7)" x="-19254.01" y="1063.76" width="76.37" height="487.06"/>
     </mask>
     <mask id="id8">
  <linearGradient id="id9" gradientUnits="userSpaceOnUse" x1="-19469.12" y1="1550.72" x2="-19784.76" y2="1233.27">
   <stop offset="0" style="stop-opacity:1; stop-color:white"/>
   <stop offset="1" style="stop-opacity:0; stop-color:white"/>
  </linearGradient>
      <rect style="fill:url(#id9)" x="-19817.93" y="1213.06" width="402.78" height="337.76"/>
     </mask>
     <mask id="id10">
  <linearGradient id="id11" gradientUnits="userSpaceOnUse" x1="-18962.52" y1="1550.72" x2="-18646.89" y2="1233.27">
   <stop offset="0" style="stop-opacity:1; stop-color:white"/>
   <stop offset="1" style="stop-opacity:0; stop-color:white"/>
  </linearGradient>
      <rect style="fill:url(#id11)" x="-19016.48" y="1213.06" width="402.78" height="337.76"/>
     </mask>
     <mask id="id12">
  <linearGradient id="id13" gradientUnits="userSpaceOnUse" x1="-19222.91" y1="2692.48" x2="-19222.9" y2="1230.05">
   <stop offset="0" style="stop-opacity:1; stop-color:white"/>
   <stop offset="1" style="stop-opacity:0; stop-color:white"/>
  </linearGradient>
      <rect style="fill:url(#id13)" x="-20412.19" y="906.81" width="2392.73" height="1930.07"/>
     </mask>
     <mask id="id14">
  <linearGradient id="id15" gradientUnits="userSpaceOnUse" x1="-16862.8" y1="2607.19" x2="-16862.78" y2="2289.37">
   <stop offset="0" style="stop-opacity:1; stop-color:white"/>
   <stop offset="1" style="stop-opacity:0; stop-color:white"/>
  </linearGradient>
      <rect style="fill:url(#id15)" x="-17503.5" y="2293.67" width="1240.51" height="314.31"/>
     </mask>
     <mask id="id16">
  <linearGradient id="id17" gradientUnits="userSpaceOnUse" x1="-15460.76" y1="2055.75" x2="-15460.73" y2="1390.89">
   <stop offset="0" style="stop-opacity:1; stop-color:white"/>
   <stop offset="1" style="stop-opacity:0; stop-color:white"/>
  </linearGradient>
      <rect style="fill:url(#id17)" x="-17503.42" y="1365.88" width="4056.44" height="704.45"/>
     </mask>
 </defs>
 <g id="Layer_x0020_1">
  <metadata id="CorelCorpID_0Corel-Layer"/>
  <g id="_2615843224368">
   <g>
    <path class="fil0" d="M-19120.28 2140.37l0 926.55 76.17 0 0 -926.55 0 -94.63 0 -76.17 -76.17 0 -191.07 0 -76.18 0 0 76.17 0 94.63 0 926.55 76.18 0 0 -926.55 0 -94.63 191.07 0 0 94.63zm-945.66 0l0 926.55 76.17 0 0 -926.55 -76.17 0zm169.6 0l0 926.55 76.17 0 0 -926.55 -76.17 0zm169.6 0l0 926.55 76.17 0 0 -926.55 -76.17 0zm169.6 0l0 926.55 76.18 0 0 -926.55 -76.18 0zm606.46 0l0 926.55 76.17 0 0 -926.55 -76.17 0zm169.6 0l0 926.55 76.17 0 0 -926.55 -76.17 0zm169.6 0l0 926.55 76.17 0 0 -926.55 -76.17 0zm169.6 0l0 926.55 76.17 0 0 -926.55 -76.17 0z"/>
    <path class="fil0" d="M-19480.98 2045.74l0 -76.17 -692.48 0 0 76.17 692.48 0zm145.09 -415.38l-837.57 0 -37.13 0 37.13 76.17 792.24 0c8.27,-29.32 24.13,-55.46 45.32,-76.17zm-837.57 245.78l837.57 0c-21.19,-20.71 -37.06,-46.85 -45.32,-76.17l-792.24 0 0 76.17z"/>
    <path class="fil0" d="M-19177.74 1137.39l0 -72.84c-12.64,-0.46 -25.33,-0.69 -38.08,-0.69 -12.75,0 -25.45,0.23 -38.09,0.69l0 72.84 0 413.33 76.17 0 0 -413.33z"/>
    <path class="fil1" d="M-18868.11 1201.08l-165.73 165.73 0 -213.06c57.19,10.9 112.59,26.83 165.73,47.33zm-241.91 241.91l0 107.73 76.17 -76.17 240.78 -240.78 54.23 -54.23c-23.92,-12.38 -48.39,-23.85 -73.35,-34.38 -70.28,-29.65 -144.5,-51.79 -221.67,-65.42 -25.09,-4.43 -50.49,-7.96 -76.17,-10.56l0 73.2 0 300.61z"/>
    <path class="fil1" d="M-19397.81 1474.54l76.18 76.17 0 -107.73 0 -300.61 0 -73.2c-25.68,2.59 -51.08,6.13 -76.18,10.56 -77.16,13.63 -151.38,35.77 -221.67,65.42 -24.96,10.53 -49.42,22 -73.34,34.38l54.23 54.23c24.46,-11.91 49.49,-22.83 75.05,-32.69 -25.56,9.86 -50.59,20.77 -75.05,32.69l240.78 240.78zm-165.73 -273.46c53.13,-20.49 108.54,-36.43 165.73,-47.33l0 213.06 -165.73 -165.73z"/>
    <path class="fil0" d="M-19415.26 1550.72l-284.42 -284.42 -53.14 -53.14c-22.23,13.44 -43.92,27.69 -65.02,42.71l52.26 52.26 242.59 242.59 107.73 0z"/>
    <path class="fil1" d="M-19618.9 1550.72l-201.6 -201.6 -51.76 -51.76c-19.73,16.09 -38.86,32.9 -57.35,50.37 -63.72,60.22 -119.81,128.41 -166.7,202.98l87.31 0c38.33,-54.94 82.24,-105.71 130.88,-151.49l151.49 151.49 107.73 0z"/>
    <path class="fil1" d="M-18553.52 1399.23c48.64,45.78 92.54,96.55 130.88,151.49l87.31 0c-46.89,-74.57 -102.99,-142.76 -166.7,-202.98 -18.49,-17.48 -37.62,-34.28 -57.35,-50.37l-51.76 51.76 -201.6 201.6 107.73 0 151.49 -151.49z"/>
    <circle class="fil1" cx="-19215.82" cy="1753.25" r="75.98"/>
    <path class="fil0" d="M-20192 1550.72c192.7,-339.76 557.67,-569 976.18,-569 418.51,0 783.47,229.24 976.17,569l85.16 0c-199.57,-382.6 -599.94,-643.8 -1061.33,-643.8 -461.39,0 -861.77,261.2 -1061.33,643.8l85.16 0zm2030.99 170.7c43.14,119.16 66.66,247.72 66.66,381.77 0,222.46 -64.77,429.79 -176.48,604.16l0 129.45c157.49,-202.58 251.28,-457.14 251.28,-733.61 0,-167.94 -34.6,-327.79 -97.07,-472.82l-44.38 91.05zm-2176.28 381.77c0,-134.05 23.52,-262.61 66.66,-381.77l-44.38 -91.05c-62.47,145.03 -97.07,304.88 -97.07,472.82 0,276.47 93.79,531.03 251.28,733.61l0 -129.46c-111.71,-174.37 -176.48,-381.7 -176.48,-604.15z"/>
    <path class="fil2" style="mask:url(#id0)" d="M-19120.28 2140.37l0 926.55 76.17 0 0 -926.55 0 -94.63 0 -76.17 -76.17 0 -191.07 0 -76.18 0 0 76.17 0 94.63 0 926.55 76.18 0 0 -926.55 0 -94.63 191.07 0 0 94.63zm-945.66 0l0 926.55 76.17 0 0 -926.55 -76.17 0zm169.6 0l0 926.55 76.17 0 0 -926.55 -76.17 0zm169.6 0l0 926.55 76.17 0 0 -926.55 -76.17 0zm169.6 0l0 926.55 76.18 0 0 -926.55 -76.18 0zm606.46 0l0 926.55 76.17 0 0 -926.55 -76.17 0zm169.6 0l0 926.55 76.17 0 0 -926.55 -76.17 0zm169.6 0l0 926.55 76.17 0 0 -926.55 -76.17 0zm169.6 0l0 926.55 76.17 0 0 -926.55 -76.17 0z"/>
    <path class="fil3" style="mask:url(#id2)" d="M-19480.98 2045.74l0 -76.17 -692.48 0 0 76.17 692.48 0zm145.09 -415.38l-837.57 0 -37.13 0 37.13 76.17 792.24 0c8.27,-29.32 24.13,-55.46 45.32,-76.17zm-837.57 245.78l837.57 0c-21.19,-20.71 -37.06,-46.85 -45.32,-76.17l-792.24 0 0 76.17z"/>
    <path class="fil0" d="M-18950.67 2045.74l0 -76.17 692.48 0 0 76.17 -692.48 0zm-145.09 -415.38l837.57 0 37.13 0 -37.13 76.17 -792.24 0c-8.27,-29.32 -24.13,-55.46 -45.32,-76.17zm837.57 245.78l-837.57 0c21.19,-20.71 37.06,-46.85 45.32,-76.17l792.24 0 0 76.17z"/>
    <path class="fil3" style="mask:url(#id4)" d="M-18950.67 2045.74l0 -76.17 692.48 0 0 76.17 -692.48 0zm-145.09 -415.38l837.57 0 37.13 0 -37.13 76.17 -792.24 0c-8.27,-29.32 -24.13,-55.46 -45.32,-76.17zm837.57 245.78l-837.57 0c21.19,-20.71 37.06,-46.85 45.32,-76.17l792.24 0 0 76.17z"/>
    <path class="fil4" style="mask:url(#id6)" d="M-19177.74 1137.39l0 -72.84c-12.64,-0.46 -25.33,-0.69 -38.08,-0.69 -12.75,0 -25.45,0.23 -38.09,0.69l0 72.84 0 413.33 76.17 0 0 -413.33z"/>
    <path class="fil4" style="mask:url(#id8)" d="M-19415.26 1550.72l-284.42 -284.42 -53.14 -53.14c-22.23,13.44 -43.92,27.69 -65.02,42.71l52.26 52.26 242.59 242.59 107.73 0z"/>
    <path class="fil0" d="M-19016.39 1550.72l284.42 -284.42 53.14 -53.14c22.23,13.44 43.91,27.69 65.02,42.71l-52.26 52.26 -242.59 242.59 -107.73 0z"/>
    <path class="fil4" style="mask:url(#id10)" d="M-19016.39 1550.72l284.42 -284.42 53.14 -53.14c22.23,13.44 43.91,27.69 65.02,42.71l-52.26 52.26 -242.59 242.59 -107.73 0z"/>
    <path class="fil5" style="mask:url(#id12)" d="M-20192 1550.72c192.7,-339.76 557.67,-569 976.18,-569 418.51,0 783.47,229.24 976.17,569l85.16 0c-199.57,-382.6 -599.94,-643.8 -1061.33,-643.8 -461.39,0 -861.77,261.2 -1061.33,643.8l85.16 0zm2030.99 170.7c43.14,119.16 66.66,247.72 66.66,381.77 0,222.46 -64.77,429.79 -176.48,604.16l0 129.45c157.49,-202.58 251.28,-457.14 251.28,-733.61 0,-167.94 -34.6,-327.79 -97.07,-472.82l-44.38 91.05zm-2176.28 381.77c0,-134.05 23.52,-262.61 66.66,-381.77l-44.38 -91.05c-62.47,145.03 -97.07,304.88 -97.07,472.82 0,276.47 93.79,531.03 251.28,733.61l0 -129.46c-111.71,-174.37 -176.48,-381.7 -176.48,-604.15z"/>
   </g>
   <g>
    <path class="fil6" d="M-17321.25 2547.67l-66.47 -254 -115.77 0 0 308.15 63.83 0 0 -254.44 5.28 0 61.19 254.44 119.74 0 0 -308.15 -62.07 0 0 254 -5.72 0zm220.98 60.31c62.51,0 102.57,-37.42 111.37,-84.08l-56.35 0c-5.72,22.89 -29.49,33.46 -55.03,33.46 -40.06,0 -59.87,-29.5 -58.55,-60.75l165.52 0c4.4,0 6.6,-1.76 6.6,-6.6 3.96,-74.84 -39.18,-128.54 -113.57,-128.54 -78.36,0 -119.3,62.95 -119.3,123.26 0,59.87 40.94,123.26 119.3,123.26zm-55.46 -150.56c4.84,-25.97 26.85,-42.26 53.7,-42.26 26.85,0 51.07,14.53 55.46,42.26l-109.17 0zm288.34 -0.88l-1.32 0 -49.3 -89.36 -61.19 0 64.71 117.54 -64.71 117.09 61.19 0 49.3 -89.36 1.76 0 49.3 89.36 61.19 0 -65.15 -117.09 64.71 -117.54 -61.19 0 -49.3 89.36zm296.26 -89.36l0 128.54c0,38.74 -27.29,58.11 -56.79,58.11 -30.81,0 -44.02,-22.01 -43.58,-61.19l0 -125.46 -62.07 0 0 135.59c0,57.23 18.49,105.21 90.24,105.21 26.85,0 63.83,-18.93 72.2,-35.66l0 29.5 62.07 0 0 -234.63 -62.07 0zm308.15 171.69c0,-44.91 -39.18,-63.39 -77.92,-71.76 -33.89,-7.05 -64.71,-14.53 -64.71,-31.7 0,-14.97 14.96,-21.57 40.94,-20.69 27.29,0.44 40.06,17.17 37.42,34.33l58.99 0c0,-48.86 -35.22,-87.6 -99.05,-87.6 -56.35,0 -98.17,23.33 -99.49,68.67 -1.32,45.78 31.69,59.43 71.31,71.32 34.33,9.68 72.63,15.41 72.63,32.13 0,16.29 -14.53,22.45 -40.06,22.01 -25.53,-0.44 -49.3,-8.36 -49.3,-35.65l-61.63 0c0,53.26 47.54,88.04 115.33,88.04 60.75,0 95.53,-19.37 95.53,-69.11z"/>
    <path class="fil7" style="mask:url(#id14)" d="M-17321.25 2547.67l-66.47 -254 -115.77 0 0 308.15 63.83 0 0 -254.44 5.28 0 61.19 254.44 119.74 0 0 -308.15 -62.07 0 0 254 -5.72 0zm220.98 60.31c62.51,0 102.57,-37.42 111.37,-84.08l-56.35 0c-5.72,22.89 -29.49,33.46 -55.03,33.46 -40.06,0 -59.87,-29.5 -58.55,-60.75l165.52 0c4.4,0 6.6,-1.76 6.6,-6.6 3.96,-74.84 -39.18,-128.54 -113.57,-128.54 -78.36,0 -119.3,62.95 -119.3,123.26 0,59.87 40.94,123.26 119.3,123.26zm-55.46 -150.56c4.84,-25.97 26.85,-42.26 53.7,-42.26 26.85,0 51.07,14.53 55.46,42.26l-109.17 0zm288.34 -0.88l-1.32 0 -49.3 -89.36 -61.19 0 64.71 117.54 -64.71 117.09 61.19 0 49.3 -89.36 1.76 0 49.3 89.36 61.19 0 -65.15 -117.09 64.71 -117.54 -61.19 0 -49.3 89.36zm296.26 -89.36l0 128.54c0,38.74 -27.29,58.11 -56.79,58.11 -30.81,0 -44.02,-22.01 -43.58,-61.19l0 -125.46 -62.07 0 0 135.59c0,57.23 18.49,105.21 90.24,105.21 26.85,0 63.83,-18.93 72.2,-35.66l0 29.5 62.07 0 0 -234.63 -62.07 0zm308.15 171.69c0,-44.91 -39.18,-63.39 -77.92,-71.76 -33.89,-7.05 -64.71,-14.53 -64.71,-31.7 0,-14.97 14.96,-21.57 40.94,-20.69 27.29,0.44 40.06,17.17 37.42,34.33l58.99 0c0,-48.86 -35.22,-87.6 -99.05,-87.6 -56.35,0 -98.17,23.33 -99.49,68.67 -1.32,45.78 31.69,59.43 71.31,71.32 34.33,9.68 72.63,15.41 72.63,32.13 0,16.29 -14.53,22.45 -40.06,22.01 -25.53,-0.44 -49.3,-8.36 -49.3,-35.65l-61.63 0c0,53.26 47.54,88.04 115.33,88.04 60.75,0 95.53,-19.37 95.53,-69.11z"/>
   </g>
   <g>
    <path class="fil6" d="M-17081.52 1697.78c42.58,-22.25 78.38,-70.64 78.38,-143.21 0,-98.7 -43.55,-175.14 -184.82,-175.14l-315.46 0 0 677.36 334.81 0c118.06,0 201.28,-65.8 202.24,-193.53 0.97,-102.57 -59.99,-152.89 -115.15,-165.47zm-155.79 -200.3c65.8,0 98.7,24.19 98.7,68.7 0,47.41 -30.96,73.54 -98.7,73.54l-129.67 0 0 -142.24 129.67 0zm-129.67 440.28l0 -179.98 176.12 0c68.7,0 89.02,53.22 89.02,89.02 0,42.58 -19.35,90.96 -86.12,90.96l-179.02 0zm555.44 119.02l54.19 -168.37 230.3 0 55.16 168.37 139.35 0 -192.57 -677.36 -233.21 0 -192.56 677.36 139.35 0zm159.66 -568.98l19.35 0 78.38 289.33 -176.11 0 78.38 -289.33zm805.09 209.98c42.58,-22.25 78.38,-70.64 78.38,-143.21 0,-98.7 -43.54,-175.14 -184.82,-175.14l-315.46 0 0 677.36 334.81 0c118.06,0 201.28,-65.8 202.24,-193.53 0.97,-102.57 -59.99,-152.89 -115.15,-165.47zm-155.79 -200.3c65.8,0 98.7,24.19 98.7,68.7 0,47.41 -30.96,73.54 -98.7,73.54l-129.67 0 0 -142.24 129.67 0zm-129.67 440.28l0 -179.98 176.11 0c68.7,0 89.02,53.22 89.02,89.02 0,42.58 -19.35,90.96 -86.12,90.96l-179.02 0zm739.29 119.02l0 -244.82 200.31 -432.54 -152.89 0 -113.22 296.1 -5.81 0 -112.25 -296.1 -153.86 0 201.27 432.54 0 244.82 136.44 0zm400.61 -677.36l-136.44 0 0 677.36 389 0 0 -119.02 -252.56 0 0 -558.33zm578.66 690.91c210.95,0 321.26,-149.99 321.26,-352.23 0,-202.24 -110.31,-352.22 -321.26,-352.22 -212.89,0 -322.23,149.98 -322.23,352.22 0,202.24 109.35,352.23 322.23,352.23zm0 -119.02c-118.06,0 -185.79,-89.99 -185.79,-233.2 0,-122.89 51.29,-233.2 184.82,-233.2 133.54,0 184.82,110.31 184.82,233.2 0,120.96 -58.06,233.2 -183.85,233.2zm817.67 -13.55l-146.12 -558.33 -254.5 0 0 677.36 140.31 0 0 -559.3 11.61 0 134.5 559.3 263.2 0 0 -677.36 -136.44 0 0 558.33 -12.58 0z"/>
    <path class="fil7" style="mask:url(#id16)" d="M-17081.52 1697.78c42.58,-22.25 78.38,-70.64 78.38,-143.21 0,-98.7 -43.55,-175.14 -184.82,-175.14l-315.46 0 0 677.36 334.81 0c118.06,0 201.28,-65.8 202.24,-193.53 0.97,-102.57 -59.99,-152.89 -115.15,-165.47zm-155.79 -200.3c65.8,0 98.7,24.19 98.7,68.7 0,47.41 -30.96,73.54 -98.7,73.54l-129.67 0 0 -142.24 129.67 0zm-129.67 440.28l0 -179.98 176.12 0c68.7,0 89.02,53.22 89.02,89.02 0,42.58 -19.35,90.96 -86.12,90.96l-179.02 0zm555.44 119.02l54.19 -168.37 230.3 0 55.16 168.37 139.35 0 -192.57 -677.36 -233.21 0 -192.56 677.36 139.35 0zm159.66 -568.98l19.35 0 78.38 289.33 -176.11 0 78.38 -289.33zm805.09 209.98c42.58,-22.25 78.38,-70.64 78.38,-143.21 0,-98.7 -43.54,-175.14 -184.82,-175.14l-315.46 0 0 677.36 334.81 0c118.06,0 201.28,-65.8 202.24,-193.53 0.97,-102.57 -59.99,-152.89 -115.15,-165.47zm-155.79 -200.3c65.8,0 98.7,24.19 98.7,68.7 0,47.41 -30.96,73.54 -98.7,73.54l-129.67 0 0 -142.24 129.67 0zm-129.67 440.28l0 -179.98 176.11 0c68.7,0 89.02,53.22 89.02,89.02 0,42.58 -19.35,90.96 -86.12,90.96l-179.02 0zm739.29 119.02l0 -244.82 200.31 -432.54 -152.89 0 -113.22 296.1 -5.81 0 -112.25 -296.1 -153.86 0 201.27 432.54 0 244.82 136.44 0zm400.61 -677.36l-136.44 0 0 677.36 389 0 0 -119.02 -252.56 0 0 -558.33zm578.66 690.91c210.95,0 321.26,-149.99 321.26,-352.23 0,-202.24 -110.31,-352.22 -321.26,-352.22 -212.89,0 -322.23,149.98 -322.23,352.22 0,202.24 109.35,352.23 322.23,352.23zm0 -119.02c-118.06,0 -185.79,-89.99 -185.79,-233.2 0,-122.89 51.29,-233.2 184.82,-233.2 133.54,0 184.82,110.31 184.82,233.2 0,120.96 -58.06,233.2 -183.85,233.2zm817.67 -13.55l-146.12 -558.33 -254.5 0 0 677.36 140.31 0 0 -559.3 11.61 0 134.5 559.3 263.2 0 0 -677.36 -136.44 0 0 558.33 -12.58 0z"/>
   </g>
  </g>
 </g>
</svg>
