<?xml version="1.0" encoding="UTF-8"?>
<!DOCTYPE svg PUBLIC "-//W3C//DTD SVG 1.1//EN" "http://www.w3.org/Graphics/SVG/1.1/DTD/svg11.dtd">
<!-- Creator: CorelDRAW -->
<svg xmlns="http://www.w3.org/2000/svg" xml:space="preserve" width="8.5in" height="11in" version="1.1" style="shape-rendering:geometricPrecision; text-rendering:geometricPrecision; image-rendering:optimizeQuality; fill-rule:evenodd; clip-rule:evenodd"
viewBox="0 0 8500 11000"
 xmlns:xlink="http://www.w3.org/1999/xlink"
 xmlns:xodm="http://www.corel.com/coreldraw/odm/2003">
 <defs>
  <style type="text/css">
   <![CDATA[
    .fil0 {fill:#F9F9F9}
    .fil1 {fill:#F9F9F9;fill-rule:nonzero}
   ]]>
  </style>
 </defs>
 <g id="Layer_x0020_1">
  <metadata id="CorelCorpID_0Corel-Layer"/>
  <g id="_2615839196016">
   <g>
    <path class="fil0" d="M-19122.62 8052.14l0 926.55 76.17 0 0 -926.55 0 -94.63 0 -76.17 -76.17 0 -191.07 0 -76.18 0 0 76.17 0 94.63 0 926.55 76.18 0 0 -926.55 0 -94.63 191.07 0 0 94.63zm-945.66 0l0 926.55 76.17 0 0 -926.55 -76.17 0zm169.6 0l0 926.55 76.17 0 0 -926.55 -76.17 0zm169.6 0l0 926.55 76.18 0 0 -926.55 -76.18 0zm169.6 0l0 926.55 76.18 0 0 -926.55 -76.18 0zm606.46 0l0 926.55 76.18 0 0 -926.55 -76.18 0zm169.6 0l0 926.55 76.18 0 0 -926.55 -76.18 0zm169.6 0l0 926.55 76.18 0 0 -926.55 -76.18 0zm169.61 0l0 926.55 76.17 0 0 -926.55 -76.17 0z"/>
    <path class="fil0" d="M-19483.31 7957.52l0 -76.17 -692.48 0 0 76.17 692.48 0zm145.09 -415.38l-837.57 0 -37.13 0 37.13 76.17 792.25 0c8.27,-29.32 24.13,-55.46 45.32,-76.17zm-837.57 245.78l837.57 0c-21.19,-20.71 -37.06,-46.85 -45.32,-76.17l-792.25 0 0 76.17z"/>
    <path class="fil0" d="M-19180.07 7049.16l0 -72.85c-12.64,-0.46 -25.34,-0.69 -38.09,-0.69 -12.75,0 -25.45,0.23 -38.09,0.69l0 72.85 0 413.33 76.18 0 0 -413.33z"/>
    <path class="fil0" d="M-18870.44 7112.86l-165.73 165.73 0 -213.06c57.19,10.89 112.59,26.83 165.73,47.33zm-241.91 241.91l0 107.73 76.18 -76.18 240.78 -240.78 54.23 -54.23c-23.92,-12.38 -48.39,-23.85 -73.34,-34.38 -70.28,-29.65 -144.5,-51.79 -221.67,-65.41 -25.09,-4.43 -50.5,-7.96 -76.18,-10.56l0 73.2 0 300.61z"/>
    <path class="fil0" d="M-19400.15 7386.31l76.18 76.18 0 -107.73 0 -300.61 0 -73.2c-25.68,2.6 -51.08,6.13 -76.18,10.56 -77.16,13.63 -151.38,35.76 -221.67,65.41 -24.96,10.53 -49.42,22 -73.34,34.38l54.23 54.23c24.45,-11.91 49.49,-22.82 75.04,-32.68 -25.56,9.86 -50.59,20.77 -75.04,32.68l240.78 240.78zm-165.73 -273.46c53.14,-20.5 108.54,-36.43 165.73,-47.33l0 213.06 -165.73 -165.73z"/>
    <path class="fil0" d="M-19417.59 7462.49l-284.43 -284.42 -53.14 -53.14c-22.23,13.44 -43.91,27.69 -65.02,42.71l52.26 52.26 242.6 242.59 107.73 0z"/>
    <path class="fil0" d="M-19621.24 7462.49l-201.6 -201.6 -51.76 -51.76c-19.73,16.09 -38.87,32.9 -57.35,50.37 -63.71,60.22 -119.81,128.41 -166.7,202.98l87.31 0c38.34,-54.94 82.24,-105.71 130.88,-151.49l151.49 151.49 107.73 0z"/>
    <path class="fil0" d="M-18555.86 7311c48.65,45.78 92.55,96.55 130.88,151.49l87.31 0c-46.89,-74.57 -102.99,-142.77 -166.7,-202.99 -18.49,-17.47 -37.62,-34.28 -57.35,-50.37l-51.76 51.76 -201.6 201.6 107.73 0 151.49 -151.49z"/>
    <circle class="fil0" cx="-19218.16" cy="7665.03" r="75.98"/>
    <path class="fil0" d="M-20194.34 7462.49c192.7,-339.77 557.67,-569.01 976.18,-569.01 418.51,0 783.47,229.24 976.18,569.01l85.16 0c-199.57,-382.6 -599.94,-643.8 -1061.33,-643.8 -461.39,0 -861.77,261.2 -1061.34,643.8l85.16 0zm2031 170.7c43.14,119.16 66.66,247.72 66.66,381.77 0,222.46 -64.77,429.79 -176.48,604.16l0 129.46c157.5,-202.58 251.28,-457.15 251.28,-733.61 0,-167.94 -34.6,-327.79 -97.07,-472.82l-44.38 91.05zm-2176.29 381.77c0,-134.05 23.52,-262.61 66.66,-381.77l-44.38 -91.05c-62.47,145.03 -97.07,304.88 -97.07,472.82 0,276.47 93.79,531.03 251.28,733.61l0 -129.45c-111.71,-174.37 -176.48,-381.7 -176.48,-604.16z"/>
    <path class="fil0" d="M-18953 7957.52l0 -76.17 692.48 0 0 76.17 -692.48 0zm-145.08 -415.38l837.57 0 37.13 0 -37.13 76.17 -792.25 0c-8.27,-29.32 -24.13,-55.46 -45.32,-76.17zm837.57 245.78l-837.57 0c21.19,-20.71 37.05,-46.85 45.32,-76.17l792.25 0 0 76.17z"/>
    <path class="fil0" d="M-19018.72 7462.49l284.42 -284.42 53.15 -53.14c22.23,13.44 43.91,27.69 65.02,42.71l-52.26 52.26 -242.6 242.59 -107.73 0z"/>
   </g>
   <g>
    <path class="fil1" d="M-17081.67 7609.36c42.61,-22.27 78.44,-70.69 78.44,-143.31 0,-98.77 -43.57,-175.26 -184.95,-175.26l-315.68 0 0 677.83 335.04 0c118.14,0 201.42,-65.85 202.38,-193.67 0.97,-102.64 -60.04,-153 -115.23,-165.58zm-155.9 -200.44c65.85,0 98.77,24.2 98.77,68.75 0,47.45 -30.99,73.59 -98.77,73.59l-129.76 0 0 -142.34 129.76 0zm-129.76 440.59l0 -180.11 176.24 0c68.75,0 89.09,53.26 89.09,89.09 0,42.61 -19.37,91.02 -86.18,91.02l-179.14 0zm555.82 119.11l54.22 -168.49 230.46 0 55.19 168.49 139.44 0 -192.7 -677.83 -233.37 0 -192.7 677.83 139.44 0zm159.77 -569.38l19.37 0 78.44 289.53 -176.24 0 78.44 -289.53zm805.65 210.13c42.61,-22.27 78.43,-70.69 78.43,-143.31 0,-98.77 -43.57,-175.26 -184.95,-175.26l-315.68 0 0 677.83 335.04 0c118.14,0 201.41,-65.85 202.38,-193.67 0.97,-102.64 -60.03,-153 -115.23,-165.58zm-155.9 -200.44c65.85,0 98.77,24.2 98.77,68.75 0,47.45 -30.99,73.59 -98.77,73.59l-129.76 0 0 -142.34 129.76 0zm-129.76 440.59l0 -180.11 176.24 0c68.75,0 89.09,53.26 89.09,89.09 0,42.61 -19.37,91.02 -86.18,91.02l-179.14 0zm739.8 119.11l0 -244.99 200.44 -432.84 -153 0 -113.3 296.31 -5.81 0 -112.33 -296.31 -153.96 0 201.41 432.84 0 244.99 136.54 0zm400.89 -677.83l-136.54 0 0 677.83 389.27 0 0 -119.11 -252.73 0 0 -558.72zm579.06 691.39c211.09,0 321.49,-150.09 321.49,-352.47 0,-202.38 -110.39,-352.47 -321.49,-352.47 -213.03,0 -322.45,150.09 -322.45,352.47 0,202.38 109.42,352.47 322.45,352.47zm0 -119.11c-118.13,0 -185.92,-90.05 -185.92,-233.37 0,-122.98 51.32,-233.37 184.95,-233.37 133.63,0 184.95,110.39 184.95,233.37 0,121.04 -58.1,233.37 -183.98,233.37zm818.24 -13.56l-146.22 -558.72 -254.67 0 0 677.83 140.41 0 0 -559.69 11.62 0 134.59 559.69 263.39 0 0 -677.83 -136.53 0 0 558.72 -12.59 0z"/>
    <path class="fil1" d="M-17321.49 8459.8l-66.52 -254.15 -115.84 0 0 308.33 63.87 0 0 -254.6 5.28 0 61.23 254.6 119.81 0 0 -308.33 -62.11 0 0 254.15 -5.73 0zm221.12 60.35c62.55,0 102.63,-37.44 111.44,-84.13l-56.39 0c-5.72,22.91 -29.51,33.48 -55.06,33.48 -40.08,0 -59.9,-29.51 -58.58,-60.79l165.62 0c4.41,0 6.61,-1.76 6.61,-6.61 3.96,-74.88 -39.2,-128.62 -113.65,-128.62 -78.41,0 -119.37,62.99 -119.37,123.33 0,59.9 40.96,123.33 119.37,123.33zm-55.5 -150.64c4.85,-25.99 26.87,-42.29 53.74,-42.29 26.87,0 51.09,14.54 55.5,42.29l-109.24 0zm288.52 -0.88l-1.32 0 -49.33 -89.42 -61.23 0 64.75 117.61 -64.75 117.17 61.23 0 49.33 -89.42 1.76 0 49.33 89.42 61.23 0 -65.19 -117.17 64.75 -117.61 -61.22 0 -49.33 89.42zm296.44 -89.42l0 128.62c0,38.76 -27.31,58.14 -56.82,58.14 -30.83,0 -44.05,-22.03 -43.61,-61.23l0 -125.54 -62.11 0 0 135.67c0,57.26 18.5,105.27 90.3,105.27 26.87,0 63.87,-18.94 72.24,-35.68l0 29.52 62.11 0 0 -234.78 -62.11 0zm308.33 171.79c0,-44.93 -39.2,-63.43 -77.96,-71.8 -33.92,-7.05 -64.75,-14.54 -64.75,-31.72 0,-14.98 14.98,-21.58 40.96,-20.7 27.31,0.44 40.08,17.18 37.44,34.36l59.02 0c0,-48.89 -35.24,-87.65 -99.11,-87.65 -56.38,0 -98.23,23.34 -99.55,68.72 -1.32,45.81 31.72,59.46 71.36,71.35 34.36,9.69 72.68,15.42 72.68,32.15 0,16.3 -14.54,22.46 -40.08,22.02 -25.55,-0.44 -49.33,-8.37 -49.33,-35.68l-61.67 0c0,53.3 47.57,88.09 115.41,88.09 60.79,0 95.59,-19.38 95.59,-69.15z"/>
   </g>
  </g>
 </g>
</svg>
