<?xml version="1.0" encoding="UTF-8"?>
<!DOCTYPE svg PUBLIC "-//W3C//DTD SVG 1.1//EN" "http://www.w3.org/Graphics/SVG/1.1/DTD/svg11.dtd">
<!-- Creator: CorelDRAW -->
<svg xmlns="http://www.w3.org/2000/svg" xml:space="preserve" width="8.5in" height="11in" version="1.1" style="shape-rendering:geometricPrecision; text-rendering:geometricPrecision; image-rendering:optimizeQuality; fill-rule:evenodd; clip-rule:evenodd"
viewBox="0 0 8500 11000"
 xmlns:xlink="http://www.w3.org/1999/xlink"
 xmlns:xodm="http://www.corel.com/coreldraw/odm/2003">
 <defs>
  <style type="text/css">
   <![CDATA[
    .fil1 {fill:#3D6EE0}
    .fil2 {fill:#CA9755}
    .fil3 {fill:#E9D080}
    .fil4 {fill:#ECCF97}
    .fil5 {fill:#F4D07C}
    .fil0 {fill:#F5F4B3}
   ]]>
  </style>
    <mask id="id0">
  <linearGradient id="id1" gradientUnits="userSpaceOnUse" x1="-11366.83" y1="3301.66" x2="-11366.82" y2="2391">
   <stop offset="0" style="stop-opacity:1; stop-color:white"/>
   <stop offset="1" style="stop-opacity:0; stop-color:white"/>
  </linearGradient>
     <rect style="fill:url(#id1)" x="-12127.82" y="2390.9" width="1535.19" height="990.89"/>
    </mask>
    <mask id="id2">
  <linearGradient id="id3" gradientUnits="userSpaceOnUse" x1="-12224.79" y1="2273.91" x2="-11482.72" y2="2273.91">
   <stop offset="0" style="stop-opacity:1; stop-color:white"/>
   <stop offset="1" style="stop-opacity:0; stop-color:white"/>
  </linearGradient>
     <rect style="fill:url(#id3)" x="-12258.41" y="2084.66" width="789.88" height="375.2"/>
    </mask>
    <mask id="id4">
  <linearGradient id="id5" gradientUnits="userSpaceOnUse" x1="-10495.66" y1="2273.91" x2="-11237.73" y2="2273.91">
   <stop offset="0" style="stop-opacity:1; stop-color:white"/>
   <stop offset="1" style="stop-opacity:0; stop-color:white"/>
  </linearGradient>
     <rect style="fill:url(#id5)" x="-11251.93" y="2084.66" width="789.88" height="375.2"/>
    </mask>
    <mask id="id6">
  <linearGradient id="id7" gradientUnits="userSpaceOnUse" x1="-11360.02" y1="2000.57" x2="-11360.01" y2="1573.33">
   <stop offset="0" style="stop-opacity:1; stop-color:white"/>
   <stop offset="1" style="stop-opacity:0; stop-color:white"/>
  </linearGradient>
     <rect style="fill:url(#id7)" x="-11394.71" y="1573.22" width="68.96" height="439.74"/>
    </mask>
    <mask id="id8">
  <linearGradient id="id9" gradientUnits="userSpaceOnUse" x1="-11588.91" y1="2012.85" x2="-11873.87" y2="1726.26">
   <stop offset="0" style="stop-opacity:1; stop-color:white"/>
   <stop offset="1" style="stop-opacity:0; stop-color:white"/>
  </linearGradient>
     <rect style="fill:url(#id9)" x="-11903.83" y="1708" width="363.65" height="304.95"/>
    </mask>
    <mask id="id10">
  <linearGradient id="id11" gradientUnits="userSpaceOnUse" x1="-11131.55" y1="2012.85" x2="-10846.59" y2="1726.26">
   <stop offset="0" style="stop-opacity:1; stop-color:white"/>
   <stop offset="1" style="stop-opacity:0; stop-color:white"/>
  </linearGradient>
     <rect style="fill:url(#id11)" x="-11180.27" y="1708" width="363.65" height="304.95"/>
    </mask>
    <mask id="id12">
  <linearGradient id="id13" gradientUnits="userSpaceOnUse" x1="-11366.63" y1="3043.65" x2="-11366.62" y2="1723.35">
   <stop offset="0" style="stop-opacity:1; stop-color:white"/>
   <stop offset="1" style="stop-opacity:0; stop-color:white"/>
  </linearGradient>
     <rect style="fill:url(#id13)" x="-12440.32" y="1431.53" width="2160.2" height="1742.51"/>
    </mask>
 </defs>
 <g id="Layer_x0020_1">
  <metadata id="CorelCorpID_0Corel-Layer"/>
  <g id="_2616272177200">
   <path class="fil0" d="M-11273.98 2545.2l0 836.5 68.77 0 0 -836.5 0 -85.43 0 -68.77 -68.77 0 -172.5 0 -68.77 0 0 68.77 0 85.43 0 836.5 68.77 0 0 -836.5 0 -85.43 172.5 0 0 85.43zm-853.75 0l0 836.5 68.77 0 0 -836.5 -68.77 0zm153.12 0l0 836.5 68.77 0 0 -836.5 -68.77 0zm153.12 0l0 836.5 68.77 0 0 -836.5 -68.77 0zm153.12 0l0 836.5 68.77 0 0 -836.5 -68.77 0zm547.52 0l0 836.5 68.77 0 0 -836.5 -68.77 0zm153.12 0l0 836.5 68.77 0 0 -836.5 -68.77 0zm153.12 0l0 836.5 68.77 0 0 -836.5 -68.77 0zm153.12 0l0 836.5 68.77 0 0 -836.5 -68.77 0z"/>
   <path class="fil0" d="M-11599.61 2459.77l0 -68.77 -625.18 0 0 68.77 625.18 0zm130.98 -375.01l-756.16 0 -33.52 0 33.52 68.77 715.24 0c7.46,-26.48 21.78,-50.07 40.92,-68.77zm-756.16 221.89l756.16 0c-19.13,-18.7 -33.45,-42.3 -40.92,-68.77l-715.24 0 0 68.77z"/>
   <path class="fil0" d="M-11325.84 1639.7l0 -65.76c-11.41,-0.41 -22.87,-0.62 -34.38,-0.62 -11.51,0 -22.98,0.2 -34.39,0.62l0 65.76 0 373.16 68.77 0 0 -373.16z"/>
   <path class="fil1" d="M-11046.3 1697.2l-149.63 149.63 0 -192.35c51.63,9.83 101.65,24.22 149.63,42.72zm-218.4 218.4l0 97.26 68.77 -68.77 217.37 -217.37 48.96 -48.96c-21.59,-11.17 -43.68,-21.54 -66.21,-31.04 -63.45,-26.76 -130.46,-46.75 -200.12,-59.06 -22.65,-4 -45.59,-7.19 -68.77,-9.54l0 66.09 0 271.4z"/>
   <path class="fil1" d="M-11524.52 1944.08l68.77 68.77 0 -97.26 0 -271.4 0 -66.09c-23.19,2.35 -46.12,5.54 -68.77,9.54 -69.66,12.3 -136.67,32.29 -200.12,59.06 -22.53,9.51 -44.62,19.87 -66.22,31.04l48.96 48.96c22.08,-10.76 44.68,-20.61 67.75,-29.51 -23.07,8.9 -45.67,18.75 -67.75,29.51l217.37 217.37zm-149.62 -246.88c47.97,-18.5 97.99,-32.89 149.62,-42.72l0 192.35 -149.62 -149.63z"/>
   <path class="fil0" d="M-11540.28 2012.85l-256.78 -256.78 -47.98 -47.98c-20.07,12.13 -39.65,25 -58.7,38.56l47.18 47.18 219.02 219.02 97.26 0z"/>
   <path class="fil1" d="M-11724.13 2012.85l-182.01 -182.01 -46.72 -46.72c-17.82,14.53 -35.09,29.7 -51.78,45.48 -57.52,54.37 -108.17,115.93 -150.5,183.26l78.83 0c34.61,-49.6 74.24,-95.43 118.16,-136.77l136.77 136.77 97.26 0z"/>
   <path class="fil1" d="M-10762.3 1876.09c43.92,41.33 83.55,87.17 118.16,136.77l78.83 0c-42.33,-67.32 -92.98,-128.89 -150.5,-183.26 -16.69,-15.78 -33.96,-30.95 -51.78,-45.48l-46.73 46.73 -182.01 182.01 97.26 0 136.77 -136.77z"/>
   <circle class="fil1" cx="-11360.23" cy="2195.7" r="68.6"/>
   <path class="fil0" d="M-12241.53 2012.85c173.98,-306.74 503.47,-513.7 881.3,-513.7 377.83,0 707.33,206.96 881.3,513.7l76.88 0c-180.17,-345.41 -541.64,-581.23 -958.18,-581.23 -416.55,0 -778.01,235.81 -958.18,581.23l76.88 0zm1833.6 154.11c38.94,107.58 60.18,223.64 60.18,344.67 0,200.83 -58.48,388.02 -159.33,545.44l0 116.87c142.19,-182.89 226.86,-412.71 226.86,-662.31 0,-151.61 -31.24,-295.93 -87.64,-426.87l-40.07 82.2zm-1964.77 344.67c0,-121.02 21.24,-237.09 60.18,-344.67l-40.07 -82.2c-56.39,130.93 -87.63,275.25 -87.63,426.87 0,249.6 84.67,479.42 226.85,662.31l0 -116.87c-100.85,-157.43 -159.33,-344.6 -159.33,-545.44z"/>
   <path class="fil2" style="mask:url(#id0)" d="M-11273.98 2545.2l0 836.5 68.77 0 0 -836.5 0 -85.43 0 -68.77 -68.77 0 -172.5 0 -68.77 0 0 68.77 0 85.43 0 836.5 68.77 0 0 -836.5 0 -85.43 172.5 0 0 85.43zm-853.75 0l0 836.5 68.77 0 0 -836.5 -68.77 0zm153.12 0l0 836.5 68.77 0 0 -836.5 -68.77 0zm153.12 0l0 836.5 68.77 0 0 -836.5 -68.77 0zm153.12 0l0 836.5 68.77 0 0 -836.5 -68.77 0zm547.52 0l0 836.5 68.77 0 0 -836.5 -68.77 0zm153.12 0l0 836.5 68.77 0 0 -836.5 -68.77 0zm153.12 0l0 836.5 68.77 0 0 -836.5 -68.77 0zm153.12 0l0 836.5 68.77 0 0 -836.5 -68.77 0z"/>
   <path class="fil3" style="mask:url(#id2)" d="M-11599.61 2459.77l0 -68.77 -625.18 0 0 68.77 625.18 0zm130.98 -375.01l-756.16 0 -33.52 0 33.52 68.77 715.24 0c7.46,-26.48 21.78,-50.07 40.92,-68.77zm-756.16 221.89l756.16 0c-19.13,-18.7 -33.45,-42.3 -40.92,-68.77l-715.24 0 0 68.77z"/>
   <path class="fil0" d="M-11120.84 2459.77l0 -68.77 625.18 0 0 68.77 -625.18 0zm-130.98 -375.01l756.16 0 33.52 0 -33.52 68.77 -715.24 0c-7.46,-26.48 -21.78,-50.07 -40.92,-68.77zm756.16 221.89l-756.16 0c19.13,-18.7 33.45,-42.3 40.92,-68.77l715.24 0 0 68.77z"/>
   <path class="fil3" style="mask:url(#id4)" d="M-11120.84 2459.77l0 -68.77 625.18 0 0 68.77 -625.18 0zm-130.98 -375.01l756.16 0 33.52 0 -33.52 68.77 -715.24 0c-7.46,-26.48 -21.78,-50.07 -40.92,-68.77zm756.16 221.89l-756.16 0c19.13,-18.7 33.45,-42.3 40.92,-68.77l715.24 0 0 68.77z"/>
   <path class="fil4" style="mask:url(#id6)" d="M-11325.84 1639.7l0 -65.76c-11.41,-0.41 -22.87,-0.62 -34.38,-0.62 -11.51,0 -22.98,0.2 -34.39,0.62l0 65.76 0 373.16 68.77 0 0 -373.16z"/>
   <path class="fil4" style="mask:url(#id8)" d="M-11540.28 2012.85l-256.78 -256.78 -47.98 -47.98c-20.07,12.13 -39.65,25 -58.7,38.56l47.18 47.18 219.02 219.02 97.26 0z"/>
   <path class="fil0" d="M-11180.17 2012.85l256.78 -256.78 47.98 -47.98c20.07,12.13 39.65,25 58.7,38.56l-47.18 47.18 -219.02 219.02 -97.26 0z"/>
   <path class="fil4" style="mask:url(#id10)" d="M-11180.17 2012.85l256.78 -256.78 47.98 -47.98c20.07,12.13 39.65,25 58.7,38.56l-47.18 47.18 -219.02 219.02 -97.26 0z"/>
   <path class="fil5" style="mask:url(#id12)" d="M-12241.53 2012.85c173.98,-306.74 503.47,-513.7 881.3,-513.7 377.83,0 707.33,206.96 881.3,513.7l76.88 0c-180.17,-345.41 -541.64,-581.23 -958.18,-581.23 -416.55,0 -778.01,235.81 -958.18,581.23l76.88 0zm1833.6 154.11c38.94,107.58 60.18,223.64 60.18,344.67 0,200.83 -58.48,388.02 -159.33,545.44l0 116.87c142.19,-182.89 226.86,-412.71 226.86,-662.31 0,-151.61 -31.24,-295.93 -87.64,-426.87l-40.07 82.2zm-1964.77 344.67c0,-121.02 21.24,-237.09 60.18,-344.67l-40.07 -82.2c-56.39,130.93 -87.63,275.25 -87.63,426.87 0,249.6 84.67,479.42 226.85,662.31l0 -116.87c-100.85,-157.43 -159.33,-344.6 -159.33,-545.44z"/>
  </g>
 </g>
</svg>
