<?xml version="1.0" encoding="UTF-8"?>
<!DOCTYPE svg PUBLIC "-//W3C//DTD SVG 1.1//EN" "http://www.w3.org/Graphics/SVG/1.1/DTD/svg11.dtd">
<!-- Creator: CorelDRAW -->
<svg xmlns="http://www.w3.org/2000/svg" xml:space="preserve" width="6.2in" height="2.2in" version="1.1" style="shape-rendering:geometricPrecision; text-rendering:geometricPrecision; image-rendering:optimizeQuality; fill-rule:evenodd; clip-rule:evenodd"
viewBox="0 0 6200 2200"
 xmlns:xlink="http://www.w3.org/1999/xlink"
 xmlns:xodm="http://www.corel.com/coreldraw/odm/2003">
 <defs>
  <style type="text/css">
   <![CDATA[
    .fil0 {fill:#F9F9F9}
    .fil1 {fill:#F9F9F9;fill-rule:nonzero}
   ]]>
  </style>
 </defs>
 <g id="Layer_x0020_1">
  <metadata id="CorelCorpID_0Corel-Layer"/>
  <g id="_2211391674128">
   <g>
    <path class="fil0" d="M1297.96 1226.09l0 761.33 62.59 0 0 -761.33 0 -77.75 0 -62.59 -62.59 0 -157 0 -62.59 0 0 62.59 0 77.75 0 761.33 62.59 0 0 -761.33 0 -77.75 157 0 0 77.75zm-777.04 0l0 761.33 62.59 0 0 -761.33 -62.59 0zm139.36 0l0 761.33 62.59 0 0 -761.33 -62.59 0zm139.36 0l0 761.33 62.59 0 0 -761.33 -62.59 0zm139.36 0l0 761.33 62.59 0 0 -761.33 -62.59 0zm498.31 0l0 761.33 62.59 0 0 -761.33 -62.59 0zm139.36 0l0 761.33 62.59 0 0 -761.33 -62.59 0zm139.36 0l0 761.33 62.59 0 0 -761.33 -62.59 0zm139.36 0l0 761.33 62.59 0 0 -761.33 -62.59 0z"/>
    <path class="fil0" d="M1001.59 1148.33l0 -62.59 -569.01 0 0 62.59 569.01 0zm119.21 -341.31l-688.22 0 -30.51 0 30.51 62.59 650.98 0c6.8,-24.09 19.83,-45.57 37.24,-62.59zm-688.22 201.95l688.22 0c-17.41,-17.02 -30.44,-38.5 -37.24,-62.59l-650.98 0 0 62.59z"/>
    <path class="fil0" d="M1250.76 401.95l0 -59.85c-10.39,-0.37 -20.82,-0.56 -31.3,-0.56 -10.48,0 -20.91,0.19 -31.3,0.56l0 59.85 0 339.63 62.59 0 0 -339.63z"/>
    <path class="fil0" d="M1505.18 454.29l-136.18 136.18 0 -175.07c46.99,8.95 92.52,22.05 136.18,38.89zm-198.77 198.77l0 88.52 62.59 -62.59 197.84 -197.84 44.56 -44.56c-19.65,-10.17 -39.76,-19.6 -60.27,-28.26 -57.75,-24.36 -118.74,-42.55 -182.14,-53.75 -20.62,-3.64 -41.49,-6.54 -62.59,-8.68l0 60.15 0 247.01z"/>
    <path class="fil0" d="M1069.93 678.99l62.59 62.59 0 -88.52 0 -247.01 0 -60.15c-21.1,2.13 -41.97,5.04 -62.59,8.68 -63.41,11.2 -124.39,29.39 -182.14,53.75 -20.51,8.65 -40.61,18.08 -60.26,28.26l44.56 44.56c20.09,-9.79 40.67,-18.76 61.67,-26.85 -21,8.1 -41.57,17.07 -61.67,26.85l197.85 197.84zm-136.18 -224.7c43.66,-16.84 89.19,-29.94 136.18,-38.89l0 175.07 -136.18 -136.18z"/>
    <path class="fil0" d="M1055.59 741.58l-233.7 -233.7 -43.67 -43.67c-18.27,11.04 -36.09,22.75 -53.42,35.09l42.94 42.94 199.34 199.33 88.52 0z"/>
    <path class="fil0" d="M888.26 741.58l-165.65 -165.65 -42.53 -42.53c-16.21,13.22 -31.93,27.03 -47.13,41.39 -52.35,49.48 -98.45,105.52 -136.97,166.79l71.74 0c31.5,-45.14 67.57,-86.86 107.54,-124.48l124.48 124.48 88.52 0z"/>
    <path class="fil0" d="M1763.66 617.1c39.97,37.62 76.04,79.33 107.54,124.48l71.74 0c-38.53,-61.27 -84.62,-117.31 -136.97,-166.79 -15.19,-14.36 -30.91,-28.17 -47.13,-41.39l-42.53 42.53 -165.65 165.65 88.52 0 124.48 -124.48z"/>
    <circle class="fil0" cx="1219.46" cy="908" r="62.44"/>
    <path class="fil0" d="M417.35 741.58c158.34,-279.18 458.23,-467.54 802.11,-467.54 343.88,0 643.77,188.37 802.11,467.54l69.97 0c-163.98,-314.37 -492.97,-529 -872.08,-529 -379.12,0 -708.11,214.63 -872.09,529l69.97 0zm1668.84 140.26c35.44,97.91 54.77,203.55 54.77,313.69 0,182.79 -53.22,353.15 -145.01,496.43l0 106.37c129.41,-166.46 206.47,-375.63 206.47,-602.8 0,-137.99 -28.43,-269.34 -79.76,-388.51l-36.46 74.81zm-1788.23 313.69c0,-110.15 19.33,-215.78 54.77,-313.7l-36.47 -74.81c-51.33,119.17 -79.76,250.52 -79.76,388.51 0,227.17 77.06,436.34 206.47,602.8l0 -106.37c-91.79,-143.28 -145.01,-313.64 -145.01,-496.43z"/>
    <path class="fil0" d="M1437.33 1148.33l0 -62.59 569.01 0 0 62.59 -569.01 0zm-119.21 -341.31l688.22 0 30.51 0 -30.51 62.59 -650.98 0c-6.8,-24.09 -19.83,-45.57 -37.24,-62.59zm688.22 201.95l-688.22 0c17.41,-17.02 30.44,-38.5 37.24,-62.59l650.98 0 0 62.59z"/>
    <path class="fil0" d="M1383.33 741.58l233.7 -233.7 43.67 -43.67c18.26,11.04 36.08,22.75 53.42,35.09l-42.94 42.94 -199.34 199.33 -88.52 0z"/>
   </g>
   <g>
    <path class="fil1" d="M2974.99 862.26c35.01,-18.3 64.45,-58.08 64.45,-117.76 0,-81.16 -35.81,-144.01 -151.97,-144.01l-259.39 0 0 556.96 275.3 0c97.07,0 165.5,-54.11 166.29,-159.13 0.8,-84.34 -49.33,-125.71 -94.68,-136.06zm-128.1 -164.7c54.1,0 81.16,19.89 81.16,56.49 0,38.98 -25.46,60.47 -81.16,60.47l-106.62 0 0 -116.96 106.62 0zm-106.62 362.02l0 -147.99 144.81 0c56.49,0 73.2,43.76 73.2,73.2 0,35.01 -15.91,74.79 -70.81,74.79l-147.2 0zm456.71 97.87l44.56 -138.44 189.37 0 45.35 138.44 114.58 0 -158.34 -556.96 -191.76 0 -158.33 556.96 114.57 0zm131.28 -467.85l15.91 0 64.45 237.9 -144.81 0 64.45 -237.9zm661.99 172.66c35.01,-18.3 64.45,-58.08 64.45,-117.76 0,-81.16 -35.81,-144.01 -151.97,-144.01l-259.39 0 0 556.96 275.3 0c97.07,0 165.5,-54.11 166.29,-159.13 0.8,-84.34 -49.33,-125.71 -94.68,-136.06zm-128.1 -164.7c54.1,0 81.16,19.89 81.16,56.49 0,38.98 -25.46,60.47 -81.16,60.47l-106.62 0 0 -116.96 106.62 0zm-106.62 362.02l0 -147.99 144.81 0c56.49,0 73.2,43.76 73.2,73.2 0,35.01 -15.91,74.79 -70.81,74.79l-147.2 0zm607.88 97.87l0 -201.3 164.7 -355.66 -125.72 0 -93.09 243.47 -4.78 0 -92.3 -243.47 -126.51 0 165.5 355.66 0 201.3 112.19 0zm329.41 -556.96l-112.19 0 0 556.96 319.86 0 0 -97.87 -207.67 0 0 -459.09zm475.81 568.1c173.45,0 264.16,-123.33 264.16,-289.62 0,-166.3 -90.71,-289.62 -264.16,-289.62 -175.05,0 -264.96,123.33 -264.96,289.62 0,166.29 89.91,289.62 264.96,289.62zm0 -97.87c-97.07,0 -152.77,-74 -152.77,-191.75 0,-101.05 42.17,-191.76 151.97,-191.76 109.8,0 151.97,90.7 151.97,191.76 0,99.46 -47.74,191.75 -151.18,191.75zm672.33 -11.14l-120.15 -459.09 -209.26 0 0 556.96 115.37 0 0 -459.89 9.55 0 110.59 459.89 216.42 0 0 -556.96 -112.19 0 0 459.09 -10.34 0z"/>
    <path class="fil1" d="M2777.93 1561.06l-54.65 -208.83 -95.19 0 0 253.35 52.48 0 0 -209.2 4.35 0 50.31 209.2 98.45 0 0 -253.35 -51.04 0 0 208.83 -4.7 0zm181.69 49.58c51.4,0 84.33,-30.76 91.57,-69.13l-46.33 0c-4.7,18.82 -24.25,27.51 -45.24,27.51 -32.93,0 -49.22,-24.25 -48.13,-49.94l136.09 0c3.62,0 5.43,-1.45 5.43,-5.43 3.26,-61.53 -32.21,-105.69 -93.38,-105.69 -64.42,0 -98.08,51.76 -98.08,101.34 0,49.22 33.66,101.34 98.08,101.34zm-45.6 -123.78c3.98,-21.35 22.08,-34.75 44.16,-34.75 22.08,0 41.98,11.95 45.6,34.75l-89.76 0zm237.07 -0.72l-1.09 0 -40.54 -73.47 -50.31 0 53.2 96.64 -53.2 96.27 50.31 0 40.54 -73.47 1.45 0 40.54 73.47 50.31 0 -53.57 -96.27 53.2 -96.64 -50.31 0 -40.54 73.47zm243.58 -73.47l0 105.69c0,31.85 -22.44,47.78 -46.69,47.78 -25.33,0 -36.19,-18.1 -35.83,-50.31l0 -103.15 -51.03 0 0 111.48c0,47.05 15.2,86.5 74.2,86.5 22.07,0 52.48,-15.56 59.36,-29.31l0 24.25 51.03 0 0 -192.91 -51.03 0zm253.35 141.15c0,-36.92 -32.21,-52.12 -64.06,-58.99 -27.87,-5.8 -53.2,-11.94 -53.2,-26.06 0,-12.3 12.3,-17.73 33.66,-17.01 22.44,0.36 32.94,14.11 30.77,28.23l48.5 0c0,-40.17 -28.95,-72.02 -81.43,-72.02 -46.33,0 -80.71,19.18 -81.8,56.46 -1.08,37.64 26.06,48.86 58.63,58.63 28.23,7.96 59.72,12.67 59.72,26.42 0,13.39 -11.94,18.46 -32.94,18.09 -20.99,-0.36 -40.54,-6.87 -40.54,-29.31l-50.67 0c0,43.8 39.09,72.39 94.83,72.39 49.94,0 78.54,-15.93 78.54,-56.82z"/>
   </g>
  </g>
 </g>
</svg>
