<?xml version="1.0" encoding="UTF-8"?>
<!DOCTYPE svg PUBLIC "-//W3C//DTD SVG 1.1//EN" "http://www.w3.org/Graphics/SVG/1.1/DTD/svg11.dtd">
<!-- Creator: CorelDRAW -->
<svg xmlns="http://www.w3.org/2000/svg" xml:space="preserve" width="3.3in" height="3in" version="1.1" style="shape-rendering:geometricPrecision; text-rendering:geometricPrecision; image-rendering:optimizeQuality; fill-rule:evenodd; clip-rule:evenodd"
viewBox="0 0 3300 3000"
 xmlns:xlink="http://www.w3.org/1999/xlink"
 xmlns:xodm="http://www.corel.com/coreldraw/odm/2003">
 <defs>
  <style type="text/css">
   <![CDATA[
    .fil1 {fill:#3D6EE0}
    .fil2 {fill:#CA9755}
    .fil3 {fill:#E9D080}
    .fil4 {fill:#ECCF97}
    .fil5 {fill:#F4D07C}
    .fil0 {fill:#F5F4B3}
   ]]>
  </style>
    <mask id="id0">
  <linearGradient id="id1" gradientUnits="userSpaceOnUse" x1="1641.61" y1="2637.84" x2="1641.61" y2="1480.09">
   <stop offset="0" style="stop-opacity:1; stop-color:white"/>
   <stop offset="1" style="stop-opacity:0; stop-color:white"/>
  </linearGradient>
     <rect style="fill:url(#id1)" x="674.17" y="1479.99" width="1951.67" height="1259.69"/>
    </mask>
    <mask id="id2">
  <linearGradient id="id3" gradientUnits="userSpaceOnUse" x1="550.86" y1="1331.24" x2="1494.26" y2="1331.24">
   <stop offset="0" style="stop-opacity:1; stop-color:white"/>
   <stop offset="1" style="stop-opacity:0; stop-color:white"/>
  </linearGradient>
     <rect style="fill:url(#id3)" x="508.15" y="1090.67" width="1004.14" height="476.95"/>
    </mask>
    <mask id="id4">
  <linearGradient id="id5" gradientUnits="userSpaceOnUse" x1="2749.13" y1="1331.24" x2="1805.73" y2="1331.24">
   <stop offset="0" style="stop-opacity:1; stop-color:white"/>
   <stop offset="1" style="stop-opacity:0; stop-color:white"/>
  </linearGradient>
     <rect style="fill:url(#id5)" x="1787.71" y="1090.67" width="1004.13" height="476.95"/>
    </mask>
    <mask id="id6">
  <linearGradient id="id7" gradientUnits="userSpaceOnUse" x1="1650.26" y1="983.74" x2="1650.27" y2="440.58">
   <stop offset="0" style="stop-opacity:1; stop-color:white"/>
   <stop offset="1" style="stop-opacity:0; stop-color:white"/>
  </linearGradient>
     <rect style="fill:url(#id7)" x="1606.19" y="440.46" width="87.63" height="559"/>
    </mask>
    <mask id="id8">
  <linearGradient id="id9" gradientUnits="userSpaceOnUse" x1="1359.27" y1="999.35" x2="997" y2="635">
   <stop offset="0" style="stop-opacity:1; stop-color:white"/>
   <stop offset="1" style="stop-opacity:0; stop-color:white"/>
  </linearGradient>
     <rect style="fill:url(#id9)" x="958.93" y="611.81" width="462.26" height="387.64"/>
    </mask>
    <mask id="id10">
  <linearGradient id="id11" gradientUnits="userSpaceOnUse" x1="1940.72" y1="999.35" x2="2303" y2="635">
   <stop offset="0" style="stop-opacity:1; stop-color:white"/>
   <stop offset="1" style="stop-opacity:0; stop-color:white"/>
  </linearGradient>
     <rect style="fill:url(#id11)" x="1878.8" y="611.81" width="462.26" height="387.64"/>
    </mask>
    <mask id="id12">
  <linearGradient id="id13" gradientUnits="userSpaceOnUse" x1="1641.86" y1="2309.83" x2="1641.87" y2="631.3">
   <stop offset="0" style="stop-opacity:1; stop-color:white"/>
   <stop offset="1" style="stop-opacity:0; stop-color:white"/>
  </linearGradient>
     <rect style="fill:url(#id13)" x="276.88" y="260.33" width="2746.24" height="2215.23"/>
    </mask>
 </defs>
 <g id="Layer_x0020_1">
  <metadata id="CorelCorpID_0Corel-Layer"/>
  <g id="_2211376853664">
   <path class="fil0" d="M1759.65 1676.13l0 1063.45 87.43 0 0 -1063.45 0 -108.61 0 -87.43 -87.43 0 -219.31 0 -87.43 0 0 87.43 0 108.61 0 1063.45 87.43 0 0 -1063.45 0 -108.61 219.31 0 0 108.61zm-1085.39 0l0 1063.45 87.43 0 0 -1063.45 -87.43 0zm194.66 0l0 1063.45 87.43 0 0 -1063.45 -87.43 0zm194.67 0l0 1063.45 87.43 0 0 -1063.45 -87.43 0zm194.66 0l0 1063.45 87.43 0 0 -1063.45 -87.43 0zm696.06 0l0 1063.45 87.43 0 0 -1063.45 -87.43 0zm194.66 0l0 1063.45 87.43 0 0 -1063.45 -87.43 0zm194.66 0l0 1063.45 87.43 0 0 -1063.45 -87.43 0zm194.66 0l0 1063.45 87.43 0 0 -1063.45 -87.43 0z"/>
   <path class="fil0" d="M1345.67 1567.52l0 -87.43 -794.8 0 0 87.43 794.8 0zm166.52 -476.76l-961.32 0 -42.62 0 42.62 87.43 909.3 0c9.49,-33.66 27.69,-63.66 52.02,-87.43zm-961.32 282.09l961.32 0c-24.33,-23.77 -42.53,-53.77 -52.02,-87.43l-909.3 0 0 87.43z"/>
   <path class="fil0" d="M1693.71 524.95l0 -83.61c-14.51,-0.52 -29.08,-0.79 -43.71,-0.79 -14.64,0 -29.21,0.26 -43.72,0.79l0 83.61 0 474.41 87.43 0 0 -474.41z"/>
   <path class="fil1" d="M2049.09 598.06l-190.22 190.22 0 -244.54c65.64,12.5 129.23,30.8 190.22,54.32zm-277.65 277.65l0 123.65 87.43 -87.43 276.35 -276.35 62.24 -62.24c-27.45,-14.21 -55.53,-27.38 -84.18,-39.46 -80.67,-34.03 -165.85,-59.44 -254.42,-75.08 -28.8,-5.09 -57.96,-9.14 -87.43,-12.12l0 84.02 0 345.03z"/>
   <path class="fil1" d="M1441.12 911.93l87.43 87.43 0 -123.65 0 -345.03 0 -84.02c-29.48,2.98 -58.63,7.04 -87.43,12.12 -88.56,15.64 -173.75,41.05 -254.42,75.08 -28.65,12.09 -56.72,25.26 -84.18,39.46l62.25 62.24c28.07,-13.67 56.8,-26.2 86.13,-37.51 -29.33,11.31 -58.07,23.84 -86.13,37.51l276.35 276.35zm-190.22 -313.87c60.99,-23.52 124.58,-41.81 190.22,-54.32l0 244.54 -190.22 -190.22z"/>
   <path class="fil0" d="M1421.09 999.35l-326.45 -326.44 -60.99 -61c-25.52,15.43 -50.41,31.78 -74.62,49.02l59.98 59.98 278.44 278.44 123.65 0z"/>
   <path class="fil1" d="M1187.36 999.35l-231.39 -231.39 -59.41 -59.41c-22.65,18.47 -44.61,37.76 -65.83,57.82 -73.13,69.12 -137.52,147.39 -191.33,232.98l100.22 0c44,-63.06 94.39,-121.33 150.22,-173.87l173.87 173.87 123.65 0z"/>
   <path class="fil1" d="M2410.15 825.48c55.83,52.55 106.22,110.82 150.22,173.87l100.21 0c-53.81,-85.59 -118.2,-163.86 -191.33,-232.98 -21.22,-20.06 -43.18,-39.34 -65.83,-57.81l-59.41 59.41 -231.39 231.39 123.64 0 173.88 -173.87z"/>
   <circle class="fil1" cx="1650" cy="1231.81" r="87.21"/>
   <path class="fil0" d="M529.59 999.35c221.17,-389.97 640.07,-653.08 1120.41,-653.08 480.35,0 899.24,263.11 1120.41,653.08l97.74 0c-229.05,-439.13 -688.59,-738.93 -1218.15,-738.93 -529.56,0 -989.1,299.8 -1218.15,738.93l97.74 0zm2331.08 195.92c49.51,136.77 76.5,284.32 76.5,438.18 0,255.33 -74.34,493.29 -202.56,693.43l0 148.58c180.76,-232.51 288.41,-524.69 288.41,-842.01 0,-192.75 -39.72,-376.22 -111.42,-542.68l-50.94 104.5zm-2497.85 438.18c0,-153.86 27,-301.41 76.5,-438.18l-50.94 -104.5c-71.7,166.46 -111.41,349.93 -111.41,542.68 0,317.32 107.64,609.49 288.4,842l0 -148.58c-128.22,-200.14 -202.56,-438.1 -202.56,-693.43z"/>
   <path class="fil2" style="mask:url(#id0)" d="M1759.65 1676.13l0 1063.45 87.43 0 0 -1063.45 0 -108.61 0 -87.43 -87.43 0 -219.31 0 -87.43 0 0 87.43 0 108.61 0 1063.45 87.43 0 0 -1063.45 0 -108.61 219.31 0 0 108.61zm-1085.39 0l0 1063.45 87.43 0 0 -1063.45 -87.43 0zm194.66 0l0 1063.45 87.43 0 0 -1063.45 -87.43 0zm194.67 0l0 1063.45 87.43 0 0 -1063.45 -87.43 0zm194.66 0l0 1063.45 87.43 0 0 -1063.45 -87.43 0zm696.06 0l0 1063.45 87.43 0 0 -1063.45 -87.43 0zm194.66 0l0 1063.45 87.43 0 0 -1063.45 -87.43 0zm194.66 0l0 1063.45 87.43 0 0 -1063.45 -87.43 0zm194.66 0l0 1063.45 87.43 0 0 -1063.45 -87.43 0z"/>
   <path class="fil3" style="mask:url(#id2)" d="M1345.67 1567.52l0 -87.43 -794.8 0 0 87.43 794.8 0zm166.52 -476.76l-961.32 0 -42.62 0 42.62 87.43 909.3 0c9.49,-33.66 27.69,-63.66 52.02,-87.43zm-961.32 282.09l961.32 0c-24.33,-23.77 -42.53,-53.77 -52.02,-87.43l-909.3 0 0 87.43z"/>
   <path class="fil0" d="M1954.33 1567.52l0 -87.43 794.8 0 0 87.43 -794.8 0zm-166.52 -476.76l961.32 0 42.61 0 -42.61 87.43 -909.31 0c-9.49,-33.66 -27.69,-63.66 -52.02,-87.43zm961.32 282.09l-961.32 0c24.32,-23.77 42.53,-53.77 52.02,-87.43l909.31 0 0 87.43z"/>
   <path class="fil3" style="mask:url(#id4)" d="M1954.33 1567.52l0 -87.43 794.8 0 0 87.43 -794.8 0zm-166.52 -476.76l961.32 0 42.61 0 -42.61 87.43 -909.31 0c-9.49,-33.66 -27.69,-63.66 -52.02,-87.43zm961.32 282.09l-961.32 0c24.32,-23.77 42.53,-53.77 52.02,-87.43l909.31 0 0 87.43z"/>
   <path class="fil4" style="mask:url(#id6)" d="M1693.71 524.95l0 -83.61c-14.51,-0.52 -29.08,-0.79 -43.71,-0.79 -14.64,0 -29.21,0.26 -43.72,0.79l0 83.61 0 474.41 87.43 0 0 -474.41z"/>
   <path class="fil4" style="mask:url(#id8)" d="M1421.09 999.35l-326.45 -326.44 -60.99 -61c-25.52,15.43 -50.41,31.78 -74.62,49.02l59.98 59.98 278.44 278.44 123.65 0z"/>
   <path class="fil0" d="M1878.9 999.35l326.44 -326.44 61 -61c25.51,15.43 50.4,31.78 74.62,49.02l-59.98 59.98 -278.44 278.44 -123.65 0z"/>
   <path class="fil4" style="mask:url(#id10)" d="M1878.9 999.35l326.44 -326.44 61 -61c25.51,15.43 50.4,31.78 74.62,49.02l-59.98 59.98 -278.44 278.44 -123.65 0z"/>
   <path class="fil5" style="mask:url(#id12)" d="M529.59 999.35c221.17,-389.97 640.07,-653.08 1120.41,-653.08 480.35,0 899.24,263.11 1120.41,653.08l97.74 0c-229.05,-439.13 -688.59,-738.93 -1218.15,-738.93 -529.56,0 -989.1,299.8 -1218.15,738.93l97.74 0zm2331.08 195.92c49.51,136.77 76.5,284.32 76.5,438.18 0,255.33 -74.34,493.29 -202.56,693.43l0 148.58c180.76,-232.51 288.41,-524.69 288.41,-842.01 0,-192.75 -39.72,-376.22 -111.42,-542.68l-50.94 104.5zm-2497.85 438.18c0,-153.86 27,-301.41 76.5,-438.18l-50.94 -104.5c-71.7,166.46 -111.41,349.93 -111.41,542.68 0,317.32 107.64,609.49 288.4,842l0 -148.58c-128.22,-200.14 -202.56,-438.1 -202.56,-693.43z"/>
  </g>
 </g>
</svg>
