<?xml version="1.0" encoding="UTF-8"?>
<!DOCTYPE svg PUBLIC "-//W3C//DTD SVG 1.1//EN" "http://www.w3.org/Graphics/SVG/1.1/DTD/svg11.dtd">
<!-- Creator: CorelDRAW -->
<svg xmlns="http://www.w3.org/2000/svg" xml:space="preserve" width="3.3in" height="3in" version="1.1" style="shape-rendering:geometricPrecision; text-rendering:geometricPrecision; image-rendering:optimizeQuality; fill-rule:evenodd; clip-rule:evenodd"
viewBox="0 0 3300 3000"
 xmlns:xlink="http://www.w3.org/1999/xlink"
 xmlns:xodm="http://www.corel.com/coreldraw/odm/2003">
 <defs>
  <style type="text/css">
   <![CDATA[
    .fil0 {fill:#F9F9F9}
   ]]>
  </style>
 </defs>
 <g id="Layer_x0020_1">
  <metadata id="CorelCorpID_0Corel-Layer"/>
  <g id="_2211374266448">
   <polygon class="fil0" points="1954.33,1567.52 2749.13,1567.52 2749.13,1480.09 1954.33,1480.09 "/>
   <polygon class="fil0" points="2538.3,1676.13 2538.3,2739.58 2625.73,2739.58 2625.73,1676.13 "/>
   <polygon class="fil0" points="2343.64,1676.13 2343.64,2739.58 2431.07,2739.58 2431.07,1676.13 "/>
   <polygon class="fil0" points="2148.97,1676.13 2148.97,2739.58 2236.41,2739.58 2236.41,1676.13 "/>
   <polygon class="fil0" points="1954.31,1676.13 1954.31,2739.58 2041.74,2739.58 2041.74,1676.13 "/>
   <polygon class="fil0" points="1759.65,1676.13 1759.65,2739.58 1847.08,2739.58 1847.08,1676.13 1847.08,1567.52 1847.08,1480.09 1759.65,1480.09 1540.34,1480.09 1452.91,1480.09 1452.91,1567.52 1452.91,1676.13 1452.91,2739.58 1540.34,2739.58 1540.34,1676.13 1540.34,1567.52 1759.65,1567.52 "/>
   <polygon class="fil0" points="1258.25,1676.13 1258.25,2739.58 1345.68,2739.58 1345.68,1676.13 "/>
   <polygon class="fil0" points="1063.59,1676.13 1063.59,2739.58 1151.02,2739.58 1151.02,1676.13 "/>
   <polygon class="fil0" points="868.93,1676.13 868.93,2739.58 956.36,2739.58 956.36,1676.13 "/>
   <polygon class="fil0" points="674.27,1676.13 674.27,2739.58 761.7,2739.58 761.7,1676.13 "/>
   <polygon class="fil0" points="1345.67,1567.52 1345.67,1480.09 550.87,1480.09 550.87,1567.52 "/>
   <path class="fil0" d="M1787.81 1372.86l961.32 0 0 -87.43 -909.3 0c-9.49,33.66 -27.69,63.66 -52.02,87.43z"/>
   <path class="fil0" d="M550.87 1372.86l961.32 0c-24.33,-23.77 -42.53,-53.77 -52.02,-87.43l-909.3 0 0 87.43z"/>
   <path class="fil0" d="M1512.19 1090.76l-961.32 0 -42.61 0 42.61 87.43 909.3 0c9.49,-33.66 27.69,-63.66 52.02,-87.43z"/>
   <path class="fil0" d="M2749.13 1178.19l42.61 -87.43 -42.61 0 -961.32 0c24.33,23.77 42.53,53.77 52.02,87.43l909.3 0z"/>
   <path class="fil0" d="M1693.71 524.95l0 -83.61c-14.51,-0.52 -29.08,-0.79 -43.72,-0.79 -14.63,0 -29.21,0.26 -43.71,0.79l0 83.61 0 474.4 87.43 0 0 -474.4z"/>
   <path class="fil0" d="M2049.09 598.06l-190.22 190.22 0 -244.54c65.64,12.51 129.23,30.8 190.22,54.32zm-277.65 277.65l0 123.65 87.43 -87.43 276.35 -276.35 62.24 -62.24c-27.46,-14.21 -55.54,-27.38 -84.18,-39.46 -80.67,-34.03 -165.85,-59.44 -254.42,-75.08 -28.8,-5.09 -57.96,-9.14 -87.43,-12.12l0 84.01 0 345.03z"/>
   <path class="fil0" d="M1441.12 911.92l87.43 87.43 0 -123.65 0 -345.03 0 -84.01c-29.48,2.98 -58.63,7.03 -87.43,12.12 -88.56,15.64 -173.75,41.06 -254.41,75.08 -28.65,12.08 -56.73,25.26 -84.19,39.46l62.25 62.24 276.35 276.35zm-190.22 -313.86c60.99,-23.52 124.58,-41.81 190.22,-54.32l0 244.54 -190.22 -190.22zm0 0c-29.33,11.31 -58.07,23.84 -86.13,37.51 28.07,-13.67 56.8,-26.2 86.13,-37.51z"/>
   <path class="fil0" d="M1250.91 598.06l-64.2 -64.2c-28.65,12.08 -56.73,25.26 -84.19,39.46l62.25 62.24c28.07,-13.67 56.8,-26.2 86.13,-37.51z"/>
   <path class="fil0" d="M1421.09 999.35l-326.44 -326.44 -61 -61c-25.51,15.43 -50.41,31.78 -74.62,49.02l59.98 59.98 278.44 278.44 123.65 0z"/>
   <path class="fil0" d="M1187.36 999.35l-231.39 -231.39 -59.41 -59.41c-22.65,18.47 -44.61,37.76 -65.83,57.81 -73.13,69.12 -137.51,147.39 -191.33,232.98l100.21 0c44,-63.06 94.39,-121.33 150.22,-173.87l173.87 173.87 123.64 0z"/>
   <path class="fil0" d="M2280.98 720.91l59.98 -59.98c-24.22,-17.24 -49.11,-33.59 -74.63,-49.02l-60.99 60.99 -326.44 326.44 123.65 0 278.44 -278.44z"/>
   <path class="fil0" d="M2410.15 825.48c55.83,52.55 106.22,110.82 150.22,173.87l100.21 0c-53.81,-85.59 -118.2,-163.86 -191.33,-232.98 -21.22,-20.06 -43.18,-39.35 -65.83,-57.82l-59.41 59.41 -231.39 231.39 123.65 0 173.87 -173.87z"/>
   <circle class="fil0" cx="1650" cy="1231.81" r="87.21"/>
   <path class="fil0" d="M529.59 999.35c221.18,-389.96 640.07,-653.08 1120.41,-653.08 480.35,0 899.24,263.11 1120.41,653.08l97.74 0c-229.05,-439.13 -688.59,-738.93 -1218.15,-738.93 -529.56,0 -989.09,299.8 -1218.15,738.93l97.74 0z"/>
   <path class="fil0" d="M362.83 1633.44c0,-153.86 26.99,-301.41 76.5,-438.18l-50.94 -104.5c-71.7,166.46 -111.42,349.93 -111.42,542.68 0,317.32 107.65,609.49 288.41,842l0 -148.58c-128.22,-200.13 -202.56,-438.09 -202.56,-693.42z"/>
   <path class="fil0" d="M2860.67 1195.27c49.51,136.77 76.5,284.32 76.5,438.18 0,255.33 -74.34,493.29 -202.56,693.43l0 148.58c180.76,-232.51 288.41,-524.69 288.41,-842.01 0,-192.75 -39.72,-376.22 -111.42,-542.68l-50.94 104.5z"/>
  </g>
 </g>
</svg>
