<?xml version="1.0" encoding="UTF-8"?>
<!DOCTYPE svg PUBLIC "-//W3C//DTD SVG 1.1//EN" "http://www.w3.org/Graphics/SVG/1.1/DTD/svg11.dtd">
<!-- Creator: CorelDRAW -->
<svg xmlns="http://www.w3.org/2000/svg" xml:space="preserve" width="8.5in" height="11in" version="1.1" style="shape-rendering:geometricPrecision; text-rendering:geometricPrecision; image-rendering:optimizeQuality; fill-rule:evenodd; clip-rule:evenodd"
viewBox="0 0 8500 11000"
 xmlns:xlink="http://www.w3.org/1999/xlink"
 xmlns:xodm="http://www.corel.com/coreldraw/odm/2003">
 <defs>
  <style type="text/css">
   <![CDATA[
    .fil0 {fill:#F9F9F9}
   ]]>
  </style>
 </defs>
 <g id="Layer_x0020_1">
  <metadata id="CorelCorpID_0Corel-Layer"/>
  <g id="_2616286646000">
   <polygon class="fil0" points="-11120.85,9085.55 -10495.67,9085.55 -10495.67,9016.78 -11120.85,9016.78 "/>
   <polygon class="fil0" points="-10661.5,9170.97 -10661.5,10007.47 -10592.74,10007.47 -10592.74,9170.97 "/>
   <polygon class="fil0" points="-10814.62,9170.97 -10814.62,10007.47 -10745.85,10007.47 -10745.85,9170.97 "/>
   <polygon class="fil0" points="-10967.74,9170.97 -10967.74,10007.47 -10898.97,10007.47 -10898.97,9170.97 "/>
   <polygon class="fil0" points="-11120.86,9170.97 -11120.86,10007.47 -11052.09,10007.47 -11052.09,9170.97 "/>
   <polygon class="fil0" points="-11273.98,9170.97 -11273.98,10007.47 -11205.21,10007.47 -11205.21,9170.97 -11205.21,9085.55 -11205.21,9016.78 -11273.98,9016.78 -11446.48,9016.78 -11515.25,9016.78 -11515.25,9085.55 -11515.25,9170.97 -11515.25,10007.47 -11446.48,10007.47 -11446.48,9170.97 -11446.48,9085.55 -11273.98,9085.55 "/>
   <polygon class="fil0" points="-11668.37,9170.97 -11668.37,10007.47 -11599.6,10007.47 -11599.6,9170.97 "/>
   <polygon class="fil0" points="-11821.49,9170.97 -11821.49,10007.47 -11752.72,10007.47 -11752.72,9170.97 "/>
   <polygon class="fil0" points="-11974.61,9170.97 -11974.61,10007.47 -11905.83,10007.47 -11905.83,9170.97 "/>
   <polygon class="fil0" points="-12127.72,9170.97 -12127.72,10007.47 -12058.95,10007.47 -12058.95,9170.97 "/>
   <polygon class="fil0" points="-11599.61,9085.55 -11599.61,9016.78 -12224.79,9016.78 -12224.79,9085.55 "/>
   <path class="fil0" d="M-11251.83 8932.43l756.16 0 0 -68.77 -715.24 0c-7.46,26.47 -21.78,50.07 -40.92,68.77z"/>
   <path class="fil0" d="M-12224.79 8932.43l756.16 0c-19.13,-18.7 -33.45,-42.3 -40.92,-68.77l-715.24 0 0 68.77z"/>
   <path class="fil0" d="M-11468.63 8710.54l-756.16 0 -33.52 0 33.52 68.77 715.24 0c7.47,-26.48 21.79,-50.07 40.92,-68.77z"/>
   <path class="fil0" d="M-10495.67 8779.31l33.52 -68.77 -33.52 0 -756.16 0c19.13,18.7 33.45,42.3 40.92,68.77l715.24 0z"/>
   <path class="fil0" d="M-11325.84 8265.48l0 -65.77c-11.41,-0.41 -22.87,-0.61 -34.39,-0.61 -11.51,0 -22.98,0.2 -34.39,0.61l0 65.77 0 373.16 68.77 0 0 -373.16z"/>
   <path class="fil0" d="M-11046.31 8322.98l-149.63 149.63 0 -192.35c51.63,9.83 101.65,24.22 149.63,42.72zm-218.4 218.4l0 97.26 68.77 -68.77 217.37 -217.37 48.96 -48.96c-21.59,-11.17 -43.68,-21.54 -66.21,-31.04 -63.45,-26.76 -130.46,-46.75 -200.12,-59.06 -22.65,-4 -45.59,-7.19 -68.77,-9.54l0 66.09 0 271.4z"/>
   <path class="fil0" d="M-11524.53 8569.86l68.77 68.77 0 -97.26 0 -271.4 0 -66.09c-23.19,2.35 -46.12,5.54 -68.77,9.54 -69.66,12.3 -136.67,32.29 -200.12,59.06 -22.54,9.51 -44.62,19.87 -66.22,31.04l48.96 48.96 217.37 217.37zm-149.62 -246.88c47.97,-18.5 97.99,-32.89 149.62,-42.72l0 192.35 -149.62 -149.63zm0 0c-23.07,8.9 -45.67,18.75 -67.75,29.51 22.08,-10.76 44.68,-20.61 67.75,-29.51z"/>
   <path class="fil0" d="M-11674.15 8322.98l-50.5 -50.5c-22.54,9.51 -44.62,19.87 -66.22,31.04l48.96 48.96c22.08,-10.76 44.68,-20.61 67.75,-29.51z"/>
   <path class="fil0" d="M-11540.28 8638.63l-256.78 -256.78 -47.98 -47.98c-20.07,12.13 -39.65,25 -58.7,38.56l47.18 47.18 219.02 219.02 97.26 0z"/>
   <path class="fil0" d="M-11724.13 8638.63l-182.01 -182.01 -46.73 -46.73c-17.81,14.53 -35.09,29.7 -51.78,45.48 -57.52,54.37 -108.17,115.93 -150.5,183.26l78.83 0c34.61,-49.6 74.24,-95.43 118.16,-136.77l136.77 136.77 97.26 0z"/>
   <path class="fil0" d="M-10863.91 8419.62l47.18 -47.18c-19.05,-13.56 -38.63,-26.43 -58.7,-38.56l-47.97 47.98 -256.78 256.78 97.26 0 219.02 -219.02z"/>
   <path class="fil0" d="M-10762.3 8501.87c43.92,41.33 83.55,87.17 118.16,136.77l78.83 0c-42.33,-67.32 -92.98,-128.89 -150.5,-183.26 -16.69,-15.78 -33.96,-30.95 -51.78,-45.48l-46.73 46.73 -182.01 182.01 97.26 0 136.77 -136.77z"/>
   <circle class="fil0" cx="-11360.23" cy="8821.48" r="68.6"/>
   <path class="fil0" d="M-12241.53 8638.63c173.97,-306.74 503.46,-513.7 881.3,-513.7 377.83,0 707.32,206.96 881.3,513.7l76.88 0c-180.17,-345.41 -541.63,-581.23 -958.18,-581.23 -416.55,0 -778.01,235.81 -958.18,581.23l76.88 0z"/>
   <path class="fil0" d="M-12372.7 9137.4c0,-121.02 21.24,-237.08 60.18,-344.67l-40.07 -82.2c-56.39,130.93 -87.64,275.25 -87.64,426.86 0,249.6 84.67,479.42 226.85,662.31l0 -116.87c-100.85,-157.42 -159.33,-344.6 -159.33,-545.44z"/>
   <path class="fil0" d="M-10407.94 8792.74c38.94,107.58 60.18,223.64 60.18,344.66 0,200.84 -58.47,388.02 -159.33,545.44l0 116.87c142.19,-182.89 226.85,-412.71 226.85,-662.31 0,-151.61 -31.24,-295.93 -87.64,-426.86l-40.07 82.2z"/>
  </g>
 </g>
</svg>
