<?xml version="1.0" encoding="UTF-8"?>
<!DOCTYPE svg PUBLIC "-//W3C//DTD SVG 1.1//EN" "http://www.w3.org/Graphics/SVG/1.1/DTD/svg11.dtd">
<!-- Creator: CorelDRAW -->
<svg xmlns="http://www.w3.org/2000/svg" xml:space="preserve" width="6.2in" height="2.2in" version="1.1" style="shape-rendering:geometricPrecision; text-rendering:geometricPrecision; image-rendering:optimizeQuality; fill-rule:evenodd; clip-rule:evenodd"
viewBox="0 0 6200 2200"
 xmlns:xlink="http://www.w3.org/1999/xlink"
 xmlns:xodm="http://www.corel.com/coreldraw/odm/2003">
 <defs>
  <style type="text/css">
   <![CDATA[
    .fil1 {fill:#3D6EE0}
    .fil2 {fill:#CA9755}
    .fil3 {fill:#E9D080}
    .fil4 {fill:#ECCF97}
    .fil5 {fill:#F4D07C}
    .fil0 {fill:#F5F4B3}
    .fil7 {fill:#F4D07C;fill-rule:nonzero}
    .fil6 {fill:#F5F4B3;fill-rule:nonzero}
   ]]>
  </style>
     <mask id="id0">
  <linearGradient id="id1" gradientUnits="userSpaceOnUse" x1="1214.12" y1="1915.13" x2="1214.13" y2="1085.74">
   <stop offset="0" style="stop-opacity:1; stop-color:white"/>
   <stop offset="1" style="stop-opacity:0; stop-color:white"/>
  </linearGradient>
      <rect style="fill:url(#id1)" x="521.03" y="1085.64" width="1398.2" height="902.48"/>
     </mask>
     <mask id="id2">
  <linearGradient id="id3" gradientUnits="userSpaceOnUse" x1="432.73" y1="979.1" x2="1108.57" y2="979.1">
   <stop offset="0" style="stop-opacity:1; stop-color:white"/>
   <stop offset="1" style="stop-opacity:0; stop-color:white"/>
  </linearGradient>
      <rect style="fill:url(#id3)" x="402.1" y="806.73" width="719.4" height="341.74"/>
     </mask>
     <mask id="id4">
  <linearGradient id="id5" gradientUnits="userSpaceOnUse" x1="2007.54" y1="979.1" x2="1331.7" y2="979.1">
   <stop offset="0" style="stop-opacity:1; stop-color:white"/>
   <stop offset="1" style="stop-opacity:0; stop-color:white"/>
  </linearGradient>
      <rect style="fill:url(#id5)" x="1318.76" y="806.73" width="719.41" height="341.74"/>
     </mask>
     <mask id="id6">
  <linearGradient id="id7" gradientUnits="userSpaceOnUse" x1="1220.32" y1="730.15" x2="1220.33" y2="341.05">
   <stop offset="0" style="stop-opacity:1; stop-color:white"/>
   <stop offset="1" style="stop-opacity:0; stop-color:white"/>
  </linearGradient>
      <rect style="fill:url(#id7)" x="1188.72" y="340.93" width="62.83" height="400.51"/>
     </mask>
     <mask id="id8">
  <linearGradient id="id9" gradientUnits="userSpaceOnUse" x1="1011.86" y1="741.34" x2="752.33" y2="480.32">
   <stop offset="0" style="stop-opacity:1; stop-color:white"/>
   <stop offset="1" style="stop-opacity:0; stop-color:white"/>
  </linearGradient>
      <rect style="fill:url(#id9)" x="725.04" y="463.69" width="331.21" height="277.75"/>
     </mask>
     <mask id="id10">
  <linearGradient id="id11" gradientUnits="userSpaceOnUse" x1="1428.4" y1="741.34" x2="1687.93" y2="480.32">
   <stop offset="0" style="stop-opacity:1; stop-color:white"/>
   <stop offset="1" style="stop-opacity:0; stop-color:white"/>
  </linearGradient>
      <rect style="fill:url(#id11)" x="1384.02" y="463.69" width="331.21" height="277.75"/>
     </mask>
     <mask id="id12">
  <linearGradient id="id13" gradientUnits="userSpaceOnUse" x1="1214.3" y1="1680.14" x2="1214.31" y2="477.68">
   <stop offset="0" style="stop-opacity:1; stop-color:white"/>
   <stop offset="1" style="stop-opacity:0; stop-color:white"/>
  </linearGradient>
      <rect style="fill:url(#id13)" x="236.42" y="211.89" width="1967.42" height="1587.01"/>
     </mask>
     <mask id="id14">
  <linearGradient id="id15" gradientUnits="userSpaceOnUse" x1="3154.87" y1="1610.01" x2="3154.89" y2="1348.69">
   <stop offset="0" style="stop-opacity:1; stop-color:white"/>
   <stop offset="1" style="stop-opacity:0; stop-color:white"/>
  </linearGradient>
      <rect style="fill:url(#id15)" x="2628.07" y="1352.22" width="1019.99" height="258.44"/>
     </mask>
     <mask id="id16">
  <linearGradient id="id17" gradientUnits="userSpaceOnUse" x1="4307.68" y1="1156.6" x2="4307.7" y2="609.93">
   <stop offset="0" style="stop-opacity:1; stop-color:white"/>
   <stop offset="1" style="stop-opacity:0; stop-color:white"/>
  </linearGradient>
      <rect style="fill:url(#id17)" x="2628.13" y="589.36" width="3335.35" height="579.23"/>
     </mask>
 </defs>
 <g id="Layer_x0020_1">
  <metadata id="CorelCorpID_0Corel-Layer"/>
  <g id="_2211579750400">
   <g>
    <path class="fil0" d="M1298.69 1226.17l0 761.84 62.63 0 0 -761.84 0 -77.8 0 -62.63 -62.63 0 -157.11 0 -62.63 0 0 62.63 0 77.8 0 761.84 62.63 0 0 -761.84 0 -77.8 157.11 0 0 77.8zm-777.56 0l0 761.84 62.63 0 0 -761.84 -62.63 0zm139.46 0l0 761.84 62.63 0 0 -761.84 -62.63 0zm139.45 0l0 761.84 62.63 0 0 -761.84 -62.63 0zm139.45 0l0 761.84 62.63 0 0 -761.84 -62.63 0zm498.65 0l0 761.84 62.63 0 0 -761.84 -62.63 0zm139.45 0l0 761.84 62.63 0 0 -761.84 -62.63 0zm139.46 0l0 761.84 62.63 0 0 -761.84 -62.63 0zm139.45 0l0 761.84 62.63 0 0 -761.84 -62.63 0z"/>
    <path class="fil0" d="M1002.11 1148.37l0 -62.63 -569.39 0 0 62.63 569.39 0zm119.29 -341.54l-688.68 0 -30.53 0 30.53 62.63 651.41 0c6.8,-24.11 19.84,-45.61 37.26,-62.63zm-688.68 202.09l688.68 0c-17.43,-17.03 -30.46,-38.52 -37.26,-62.63l-651.41 0 0 62.63z"/>
    <path class="fil0" d="M1251.45 401.49l0 -59.9c-10.39,-0.37 -20.83,-0.56 -31.31,-0.56 -10.48,0 -20.93,0.19 -31.32,0.56l0 59.9 0 339.85 62.63 0 0 -339.85z"/>
    <path class="fil1" d="M1506.04 453.86l-136.27 136.27 0 -175.19c47.02,8.96 92.58,22.06 136.27,38.92zm-198.91 198.9l0 88.58 62.63 -62.63 197.97 -197.97 44.59 -44.59c-19.67,-10.18 -39.78,-19.61 -60.31,-28.27 -57.79,-24.38 -118.81,-42.58 -182.26,-53.78 -20.63,-3.65 -41.52,-6.55 -62.63,-8.69l0 60.19 0 247.17z"/>
    <path class="fil1" d="M1070.5 678.71l62.63 62.63 0 -88.58 0 -247.17 0 -60.19c-21.11,2.13 -42,5.04 -62.63,8.69 -63.44,11.2 -124.47,29.41 -182.26,53.78 -20.52,8.66 -40.64,18.09 -60.31,28.27l44.59 44.59c20.11,-9.8 40.69,-18.77 61.7,-26.87 -21.02,8.1 -41.6,17.08 -61.7,26.87l197.97 197.97zm-136.27 -224.85c43.69,-16.85 89.24,-29.96 136.27,-38.92l0 175.19 -136.27 -136.27z"/>
    <path class="fil0" d="M1056.15 741.34l-233.86 -233.86 -43.7 -43.7c-18.28,11.05 -36.11,22.77 -53.46,35.12l42.97 42.97 199.47 199.47 88.58 0z"/>
    <path class="fil1" d="M888.71 741.34l-165.76 -165.76 -42.56 -42.56c-16.22,13.23 -31.96,27.05 -47.16,41.42 -52.39,49.52 -98.52,105.59 -137.07,166.9l71.79 0c31.52,-45.17 67.62,-86.92 107.62,-124.56l124.56 124.56 88.58 0z"/>
    <path class="fil1" d="M1764.7 616.78c40,37.65 76.09,79.39 107.61,124.56l71.79 0c-38.55,-61.31 -84.68,-117.39 -137.07,-166.9 -15.2,-14.37 -30.93,-28.19 -47.16,-41.42l-42.56 42.56 -165.76 165.76 88.58 0 124.56 -124.56z"/>
    <circle class="fil1" cx="1220.13" cy="907.87" r="62.48"/>
    <path class="fil0" d="M417.48 741.34c158.45,-279.37 458.54,-467.86 802.65,-467.86 344.11,0 644.2,188.49 802.65,467.86l70.02 0c-164.09,-314.59 -493.3,-529.36 -872.67,-529.36 -379.37,0 -708.58,214.77 -872.67,529.36l70.02 0zm1669.95 140.35c35.47,97.98 54.81,203.69 54.81,313.91 0,182.91 -53.26,353.39 -145.11,496.76l0 106.44c129.5,-166.57 206.61,-375.88 206.61,-603.2 0,-138.08 -28.45,-269.52 -79.81,-388.77l-36.49 74.86zm-1789.42 313.91c0,-110.22 19.34,-215.93 54.81,-313.91l-36.49 -74.86c-51.36,119.25 -79.81,250.69 -79.81,388.77 0,227.32 77.11,436.63 206.61,603.2l0 -106.44c-91.85,-143.37 -145.11,-313.85 -145.11,-496.76z"/>
    <path class="fil2" style="mask:url(#id0)" d="M1298.69 1226.17l0 761.84 62.63 0 0 -761.84 0 -77.8 0 -62.63 -62.63 0 -157.11 0 -62.63 0 0 62.63 0 77.8 0 761.84 62.63 0 0 -761.84 0 -77.8 157.11 0 0 77.8zm-777.56 0l0 761.84 62.63 0 0 -761.84 -62.63 0zm139.46 0l0 761.84 62.63 0 0 -761.84 -62.63 0zm139.45 0l0 761.84 62.63 0 0 -761.84 -62.63 0zm139.45 0l0 761.84 62.63 0 0 -761.84 -62.63 0zm498.65 0l0 761.84 62.63 0 0 -761.84 -62.63 0zm139.45 0l0 761.84 62.63 0 0 -761.84 -62.63 0zm139.46 0l0 761.84 62.63 0 0 -761.84 -62.63 0zm139.45 0l0 761.84 62.63 0 0 -761.84 -62.63 0z"/>
    <path class="fil3" style="mask:url(#id2)" d="M1002.11 1148.37l0 -62.63 -569.39 0 0 62.63 569.39 0zm119.29 -341.54l-688.68 0 -30.53 0 30.53 62.63 651.41 0c6.8,-24.11 19.84,-45.61 37.26,-62.63zm-688.68 202.09l688.68 0c-17.43,-17.03 -30.46,-38.52 -37.26,-62.63l-651.41 0 0 62.63z"/>
    <path class="fil0" d="M1438.15 1148.37l0 -62.63 569.38 0 0 62.63 -569.38 0zm-119.3 -341.54l688.68 0 30.53 0 -30.53 62.63 -651.41 0c-6.8,-24.11 -19.84,-45.61 -37.26,-62.63zm688.68 202.09l-688.68 0c17.43,-17.03 30.46,-38.52 37.26,-62.63l651.41 0 0 62.63z"/>
    <path class="fil3" style="mask:url(#id4)" d="M1438.15 1148.37l0 -62.63 569.38 0 0 62.63 -569.38 0zm-119.3 -341.54l688.68 0 30.53 0 -30.53 62.63 -651.41 0c-6.8,-24.11 -19.84,-45.61 -37.26,-62.63zm688.68 202.09l-688.68 0c17.43,-17.03 30.46,-38.52 37.26,-62.63l651.41 0 0 62.63z"/>
    <path class="fil4" style="mask:url(#id6)" d="M1251.45 401.49l0 -59.9c-10.39,-0.37 -20.83,-0.56 -31.31,-0.56 -10.48,0 -20.93,0.19 -31.32,0.56l0 59.9 0 339.85 62.63 0 0 -339.85z"/>
    <path class="fil4" style="mask:url(#id8)" d="M1056.15 741.34l-233.86 -233.86 -43.7 -43.7c-18.28,11.05 -36.11,22.77 -53.46,35.12l42.97 42.97 199.47 199.47 88.58 0z"/>
    <path class="fil0" d="M1384.11 741.34l233.86 -233.86 43.7 -43.7c18.28,11.05 36.11,22.77 53.46,35.12l-42.96 42.97 -199.47 199.47 -88.58 0z"/>
    <path class="fil4" style="mask:url(#id10)" d="M1384.11 741.34l233.86 -233.86 43.7 -43.7c18.28,11.05 36.11,22.77 53.46,35.12l-42.96 42.97 -199.47 199.47 -88.58 0z"/>
    <path class="fil5" style="mask:url(#id12)" d="M417.48 741.34c158.45,-279.37 458.54,-467.86 802.65,-467.86 344.11,0 644.2,188.49 802.65,467.86l70.02 0c-164.09,-314.59 -493.3,-529.36 -872.67,-529.36 -379.37,0 -708.58,214.77 -872.67,529.36l70.02 0zm1669.95 140.35c35.47,97.98 54.81,203.69 54.81,313.91 0,182.91 -53.26,353.39 -145.11,496.76l0 106.44c129.5,-166.57 206.61,-375.88 206.61,-603.2 0,-138.08 -28.45,-269.52 -79.81,-388.77l-36.49 74.86zm-1789.42 313.91c0,-110.22 19.34,-215.93 54.81,-313.91l-36.49 -74.86c-51.36,119.25 -79.81,250.69 -79.81,388.77 0,227.32 77.11,436.63 206.61,603.2l0 -106.44c-91.85,-143.37 -145.11,-313.85 -145.11,-496.76z"/>
   </g>
   <g>
    <path class="fil6" d="M2777.92 1561.07l-54.66 -208.85 -95.19 0 0 253.37 52.48 0 0 -209.22 4.34 0 50.31 209.22 98.45 0 0 -253.37 -51.04 0 0 208.85 -4.7 0zm181.7 49.59c51.4,0 84.33,-30.77 91.57,-69.14l-46.33 0c-4.7,18.82 -24.25,27.51 -45.24,27.51 -32.94,0 -49.22,-24.25 -48.14,-49.95l136.1 0c3.62,0 5.43,-1.44 5.43,-5.43 3.26,-61.53 -32.22,-105.69 -93.39,-105.69 -64.43,0 -98.09,51.76 -98.09,101.35 0,49.23 33.66,101.35 98.09,101.35zm-45.61 -123.79c3.98,-21.35 22.08,-34.75 44.16,-34.75 22.08,0 41.99,11.94 45.61,34.75l-89.76 0zm237.08 -0.72l-1.09 0 -40.54 -73.48 -50.31 0 53.21 96.65 -53.21 96.28 50.31 0 40.54 -73.48 1.45 0 40.54 73.48 50.31 0 -53.57 -96.28 53.21 -96.65 -50.31 0 -40.54 73.48zm243.6 -73.48l0 105.7c0,31.85 -22.44,47.78 -46.69,47.78 -25.34,0 -36.2,-18.1 -35.83,-50.31l0 -103.16 -51.04 0 0 111.49c0,47.06 15.2,86.51 74.2,86.51 22.08,0 52.48,-15.57 59.36,-29.32l0 24.25 51.04 0 0 -192.93 -51.04 0zm253.37 141.17c0,-36.92 -32.21,-52.13 -64.07,-59 -27.87,-5.8 -53.2,-11.95 -53.2,-26.06 0,-12.31 12.3,-17.74 33.66,-17.01 22.44,0.36 32.94,14.11 30.77,28.23l48.5 0c0,-40.18 -28.96,-72.03 -81.44,-72.03 -46.33,0 -80.72,19.18 -81.8,56.46 -1.08,37.64 26.06,48.86 58.64,58.64 28.23,7.96 59.72,12.67 59.72,26.42 0,13.39 -11.94,18.46 -32.94,18.1 -21,-0.36 -40.54,-6.88 -40.54,-29.32l-50.68 0c0,43.8 39.09,72.39 94.83,72.39 49.95,0 78.54,-15.93 78.54,-56.83z"/>
    <path class="fil7" style="mask:url(#id14)" d="M2777.92 1561.07l-54.66 -208.85 -95.19 0 0 253.37 52.48 0 0 -209.22 4.34 0 50.31 209.22 98.45 0 0 -253.37 -51.04 0 0 208.85 -4.7 0zm181.7 49.59c51.4,0 84.33,-30.77 91.57,-69.14l-46.33 0c-4.7,18.82 -24.25,27.51 -45.24,27.51 -32.94,0 -49.22,-24.25 -48.14,-49.95l136.1 0c3.62,0 5.43,-1.44 5.43,-5.43 3.26,-61.53 -32.22,-105.69 -93.39,-105.69 -64.43,0 -98.09,51.76 -98.09,101.35 0,49.23 33.66,101.35 98.09,101.35zm-45.61 -123.79c3.98,-21.35 22.08,-34.75 44.16,-34.75 22.08,0 41.99,11.94 45.61,34.75l-89.76 0zm237.08 -0.72l-1.09 0 -40.54 -73.48 -50.31 0 53.21 96.65 -53.21 96.28 50.31 0 40.54 -73.48 1.45 0 40.54 73.48 50.31 0 -53.57 -96.28 53.21 -96.65 -50.31 0 -40.54 73.48zm243.6 -73.48l0 105.7c0,31.85 -22.44,47.78 -46.69,47.78 -25.34,0 -36.2,-18.1 -35.83,-50.31l0 -103.16 -51.04 0 0 111.49c0,47.06 15.2,86.51 74.2,86.51 22.08,0 52.48,-15.57 59.36,-29.32l0 24.25 51.04 0 0 -192.93 -51.04 0zm253.37 141.17c0,-36.92 -32.21,-52.13 -64.07,-59 -27.87,-5.8 -53.2,-11.95 -53.2,-26.06 0,-12.31 12.3,-17.74 33.66,-17.01 22.44,0.36 32.94,14.11 30.77,28.23l48.5 0c0,-40.18 -28.96,-72.03 -81.44,-72.03 -46.33,0 -80.72,19.18 -81.8,56.46 -1.08,37.64 26.06,48.86 58.64,58.64 28.23,7.96 59.72,12.67 59.72,26.42 0,13.39 -11.94,18.46 -32.94,18.1 -21,-0.36 -40.54,-6.88 -40.54,-29.32l-50.68 0c0,43.8 39.09,72.39 94.83,72.39 49.95,0 78.54,-15.93 78.54,-56.83z"/>
   </g>
   <g>
    <path class="fil6" d="M2975.03 862.27c35.01,-18.3 64.45,-58.08 64.45,-117.76 0,-81.15 -35.8,-144.01 -151.97,-144.01l-259.38 0 0 556.94 275.3 0c97.07,0 165.5,-54.1 166.29,-159.13 0.8,-84.34 -49.33,-125.71 -94.68,-136.06zm-128.1 -164.7c54.1,0 81.16,19.89 81.16,56.49 0,38.98 -25.46,60.46 -81.16,60.46l-106.62 0 0 -116.96 106.62 0zm-106.62 362.02l0 -147.99 144.81 0c56.49,0 73.2,43.76 73.2,73.2 0,35.01 -15.91,74.79 -70.81,74.79l-147.2 0zm456.7 97.86l44.56 -138.44 189.36 0 45.35 138.44 114.57 0 -158.33 -556.94 -191.76 0 -158.33 556.94 114.57 0zm131.28 -467.83l15.91 0 64.45 237.9 -144.81 0 64.45 -237.9zm661.98 172.65c35.01,-18.3 64.45,-58.08 64.45,-117.76 0,-81.15 -35.8,-144.01 -151.97,-144.01l-259.38 0 0 556.94 275.3 0c97.07,0 165.5,-54.1 166.29,-159.13 0.8,-84.34 -49.33,-125.71 -94.68,-136.06zm-128.09 -164.7c54.1,0 81.15,19.89 81.15,56.49 0,38.98 -25.46,60.46 -81.15,60.46l-106.62 0 0 -116.96 106.62 0zm-106.62 362.02l0 -147.99 144.81 0c56.49,0 73.2,43.76 73.2,73.2 0,35.01 -15.91,74.79 -70.81,74.79l-147.2 0zm607.87 97.86l0 -201.3 164.7 -355.65 -125.71 0 -93.09 243.46 -4.78 0 -92.3 -243.46 -126.5 0 165.49 355.65 0 201.3 112.19 0zm329.4 -556.94l-112.19 0 0 556.94 319.85 0 0 -97.86 -207.66 0 0 -459.08zm475.8 568.09c173.45,0 264.15,-123.33 264.15,-289.61 0,-166.29 -90.7,-289.61 -264.15,-289.61 -175.04,0 -264.95,123.33 -264.95,289.61 0,166.29 89.91,289.61 264.95,289.61zm0 -97.87c-97.07,0 -152.76,-73.99 -152.76,-191.75 0,-101.05 42.17,-191.75 151.97,-191.75 109.8,0 151.97,90.7 151.97,191.75 0,99.46 -47.74,191.75 -151.17,191.75zm672.32 -11.14l-120.14 -459.08 -209.26 0 0 556.94 115.37 0 0 -459.88 9.55 0 110.59 459.88 216.42 0 0 -556.94 -112.19 0 0 459.08 -10.35 0z"/>
    <path class="fil7" style="mask:url(#id16)" d="M2975.03 862.27c35.01,-18.3 64.45,-58.08 64.45,-117.76 0,-81.15 -35.8,-144.01 -151.97,-144.01l-259.38 0 0 556.94 275.3 0c97.07,0 165.5,-54.1 166.29,-159.13 0.8,-84.34 -49.33,-125.71 -94.68,-136.06zm-128.1 -164.7c54.1,0 81.16,19.89 81.16,56.49 0,38.98 -25.46,60.46 -81.16,60.46l-106.62 0 0 -116.96 106.62 0zm-106.62 362.02l0 -147.99 144.81 0c56.49,0 73.2,43.76 73.2,73.2 0,35.01 -15.91,74.79 -70.81,74.79l-147.2 0zm456.7 97.86l44.56 -138.44 189.36 0 45.35 138.44 114.57 0 -158.33 -556.94 -191.76 0 -158.33 556.94 114.57 0zm131.28 -467.83l15.91 0 64.45 237.9 -144.81 0 64.45 -237.9zm661.98 172.65c35.01,-18.3 64.45,-58.08 64.45,-117.76 0,-81.15 -35.8,-144.01 -151.97,-144.01l-259.38 0 0 556.94 275.3 0c97.07,0 165.5,-54.1 166.29,-159.13 0.8,-84.34 -49.33,-125.71 -94.68,-136.06zm-128.09 -164.7c54.1,0 81.15,19.89 81.15,56.49 0,38.98 -25.46,60.46 -81.15,60.46l-106.62 0 0 -116.96 106.62 0zm-106.62 362.02l0 -147.99 144.81 0c56.49,0 73.2,43.76 73.2,73.2 0,35.01 -15.91,74.79 -70.81,74.79l-147.2 0zm607.87 97.86l0 -201.3 164.7 -355.65 -125.71 0 -93.09 243.46 -4.78 0 -92.3 -243.46 -126.5 0 165.49 355.65 0 201.3 112.19 0zm329.4 -556.94l-112.19 0 0 556.94 319.85 0 0 -97.86 -207.66 0 0 -459.08zm475.8 568.09c173.45,0 264.15,-123.33 264.15,-289.61 0,-166.29 -90.7,-289.61 -264.15,-289.61 -175.04,0 -264.95,123.33 -264.95,289.61 0,166.29 89.91,289.61 264.95,289.61zm0 -97.87c-97.07,0 -152.76,-73.99 -152.76,-191.75 0,-101.05 42.17,-191.75 151.97,-191.75 109.8,0 151.97,90.7 151.97,191.75 0,99.46 -47.74,191.75 -151.17,191.75zm672.32 -11.14l-120.14 -459.08 -209.26 0 0 556.94 115.37 0 0 -459.88 9.55 0 110.59 459.88 216.42 0 0 -556.94 -112.19 0 0 459.08 -10.35 0z"/>
   </g>
  </g>
 </g>
</svg>
