<?xml version="1.0" encoding="UTF-8"?>
<!DOCTYPE svg PUBLIC "-//W3C//DTD SVG 1.1//EN" "http://www.w3.org/Graphics/SVG/1.1/DTD/svg11.dtd">
<!-- Creator: CorelDRAW -->
<svg xmlns="http://www.w3.org/2000/svg" xml:space="preserve" width="2.5in" height="3in" version="1.1" style="shape-rendering:geometricPrecision; text-rendering:geometricPrecision; image-rendering:optimizeQuality; fill-rule:evenodd; clip-rule:evenodd"
viewBox="0 0 2500 3000"
 xmlns:xlink="http://www.w3.org/1999/xlink"
 xmlns:xodm="http://www.corel.com/coreldraw/odm/2003">
 <defs>
  <style type="text/css">
   <![CDATA[
    .fil0 {fill:#F9F9F9}
    .fil1 {fill:#F9F9F9;fill-rule:nonzero}
   ]]>
  </style>
 </defs>
 <g id="Layer_x0020_1">
  <metadata id="CorelCorpID_0Corel-Layer"/>
  <g id="_2211410739072">
   <g>
    <polygon class="fil0" points="1468.02,1122.61 2037.4,1122.61 2037.4,1059.98 1468.02,1059.98 "/>
    <polygon class="fil0" points="1886.36,1200.42 1886.36,1962.26 1949,1962.26 1949,1200.42 "/>
    <polygon class="fil0" points="1746.91,1200.42 1746.91,1962.26 1809.54,1962.26 1809.54,1200.42 "/>
    <polygon class="fil0" points="1607.46,1200.42 1607.46,1962.26 1670.09,1962.26 1670.09,1200.42 "/>
    <polygon class="fil0" points="1468,1200.42 1468,1962.26 1530.64,1962.26 1530.64,1200.42 "/>
    <polygon class="fil0" points="1328.55,1200.42 1328.55,1962.26 1391.19,1962.26 1391.19,1200.42 1391.19,1122.61 1391.19,1059.98 1328.55,1059.98 1171.44,1059.98 1108.81,1059.98 1108.81,1122.61 1108.81,1200.42 1108.81,1962.26 1171.44,1962.26 1171.44,1200.42 1171.44,1122.61 1328.55,1122.61 "/>
    <polygon class="fil0" points="969.36,1200.42 969.36,1962.26 1031.99,1962.26 1031.99,1200.42 "/>
    <polygon class="fil0" points="829.91,1200.42 829.91,1962.26 892.54,1962.26 892.54,1200.42 "/>
    <polygon class="fil0" points="690.45,1200.42 690.45,1962.26 753.09,1962.26 753.09,1200.42 "/>
    <polygon class="fil0" points="551,1200.42 551,1962.26 613.63,1962.26 613.63,1200.42 "/>
    <polygon class="fil0" points="1031.98,1122.61 1031.98,1059.98 462.6,1059.98 462.6,1122.61 "/>
    <path class="fil0" d="M1348.72 983.16l688.67 0 0 -62.63 -651.41 0c-6.8,24.11 -19.84,45.61 -37.26,62.63z"/>
    <path class="fil0" d="M462.6 983.16l688.67 0c-17.43,-17.03 -30.46,-38.52 -37.26,-62.63l-651.41 0 0 62.63z"/>
    <path class="fil0" d="M1151.27 781.07l-688.67 0 -30.53 0 30.53 62.63 651.41 0c6.8,-24.11 19.84,-45.6 37.26,-62.63z"/>
    <path class="fil0" d="M2037.4 843.71l30.53 -62.63 -30.53 0 -688.67 0c17.43,17.03 30.46,38.52 37.26,62.63l651.41 0z"/>
    <path class="fil0" d="M1281.31 375.74l0 -59.9c-10.39,-0.37 -20.83,-0.56 -31.32,-0.56 -10.48,0 -20.92,0.19 -31.31,0.56l0 59.9 0 339.85 62.63 0 0 -339.85z"/>
    <path class="fil0" d="M1535.9 428.11l-136.27 136.27 0 -175.18c47.02,8.96 92.58,22.06 136.27,38.91zm-198.91 198.9l0 88.58 62.63 -62.63 197.98 -197.97 44.59 -44.59c-19.67,-10.18 -39.78,-19.61 -60.31,-28.27 -57.79,-24.37 -118.81,-42.58 -182.26,-53.78 -20.63,-3.65 -41.52,-6.55 -62.63,-8.69l0 60.19 0 247.17z"/>
    <path class="fil0" d="M1100.36 652.96l62.63 62.63 0 -88.58 0 -247.17 0 -60.19c-21.11,2.14 -42,5.04 -62.63,8.69 -63.44,11.2 -124.47,29.41 -182.26,53.78 -20.52,8.66 -40.64,18.09 -60.31,28.27l44.59 44.59 197.97 197.97zm-136.27 -224.85c43.69,-16.85 89.24,-29.96 136.27,-38.91l0 175.18 -136.27 -136.27zm0 0c-21.02,8.11 -41.6,17.08 -61.7,26.87 20.11,-9.8 40.69,-18.77 61.7,-26.87z"/>
    <path class="fil0" d="M964.09 428.11l-45.99 -45.99c-20.52,8.66 -40.64,18.09 -60.31,28.27l44.59 44.59c20.11,-9.8 40.69,-18.77 61.7,-26.87z"/>
    <path class="fil0" d="M1086.02 715.59l-233.86 -233.86 -43.7 -43.7c-18.28,11.05 -36.11,22.77 -53.46,35.12l42.97 42.97 199.47 199.47 88.58 0z"/>
    <path class="fil0" d="M918.57 715.59l-165.76 -165.76 -42.56 -42.56c-16.22,13.23 -31.96,27.05 -47.16,41.42 -52.39,49.52 -98.51,105.59 -137.07,166.9l71.8 0c31.52,-45.17 67.61,-86.92 107.61,-124.56l124.56 124.56 88.58 0z"/>
    <path class="fil0" d="M1702.03 516.12l42.97 -42.97c-17.35,-12.35 -35.18,-24.07 -53.46,-35.12l-43.69 43.69 -233.86 233.86 88.58 0 199.47 -199.47z"/>
    <path class="fil0" d="M1794.56 591.03c40,37.65 76.09,79.39 107.61,124.56l71.79 0c-38.55,-61.31 -84.68,-117.39 -137.07,-166.9 -15.2,-14.37 -30.93,-28.19 -47.16,-41.42l-42.56 42.56 -165.76 165.76 88.57 0 124.56 -124.56z"/>
    <circle class="fil0" cx="1250" cy="882.12" r="62.48"/>
    <path class="fil0" d="M447.35 715.59c158.44,-279.37 458.53,-467.86 802.64,-467.86 344.11,0 644.2,188.49 802.65,467.86l70.02 0c-164.09,-314.59 -493.3,-529.36 -872.67,-529.36 -379.37,0 -708.57,214.77 -872.66,529.36l70.02 0z"/>
    <path class="fil0" d="M327.89 1169.84c0,-110.22 19.34,-215.93 54.81,-313.91l-36.49 -74.86c-51.36,119.25 -79.81,250.69 -79.81,388.77 0,227.32 77.11,436.63 206.61,603.2l0 -106.44c-91.85,-143.37 -145.11,-313.84 -145.11,-496.76z"/>
    <path class="fil0" d="M2117.3 855.94c35.47,97.98 54.81,203.68 54.81,313.9 0,182.91 -53.26,353.39 -145.11,496.76l0 106.44c129.5,-166.57 206.61,-375.88 206.61,-603.2 0,-138.08 -28.45,-269.52 -79.82,-388.77l-36.49 74.87z"/>
   </g>
   <g>
    <rect class="fil0" x="1663.38" y="2727.22" width="568.3" height="24.05"/>
    <path class="fil1" d="M488.25 2344.48c20.19,-10.55 37.17,-33.5 37.17,-67.91 0,-46.81 -20.65,-83.06 -87.65,-83.06l-149.59 0 0 321.22 158.77 0c55.98,0 95.45,-31.2 95.91,-91.78 0.46,-48.64 -28.45,-72.5 -54.61,-78.47zm-73.88 -94.99c31.2,0 46.81,11.47 46.81,32.58 0,22.48 -14.69,34.87 -46.81,34.87l-61.49 0 0 -67.46 61.49 0zm-61.49 208.79l0 -85.35 83.52 0c32.58,0 42.22,25.24 42.22,42.22 0,20.19 -9.18,43.13 -40.84,43.13l-84.89 0zm263.4 56.44l25.7 -79.85 109.21 0 26.16 79.85 66.08 0 -91.31 -321.22 -110.59 0 -91.32 321.22 66.08 0zm75.71 -269.82l9.18 0 37.17 137.2 -83.52 0 37.17 -137.2zm381.8 99.57c20.19,-10.55 37.17,-33.5 37.17,-67.91 0,-46.81 -20.65,-83.06 -87.65,-83.06l-149.6 0 0 321.22 158.77 0c55.99,0 95.45,-31.2 95.91,-91.78 0.46,-48.64 -28.45,-72.5 -54.61,-78.47zm-73.88 -94.99c31.2,0 46.81,11.47 46.81,32.58 0,22.48 -14.69,34.87 -46.81,34.87l-61.49 0 0 -67.46 61.49 0zm-61.49 208.79l0 -85.35 83.52 0c32.58,0 42.22,25.24 42.22,42.22 0,20.19 -9.18,43.13 -40.84,43.13l-84.9 0zm350.59 56.44l0 -116.1 94.99 -205.12 -72.5 0 -53.69 140.42 -2.76 0 -53.23 -140.42 -72.96 0 95.45 205.12 0 116.1 64.7 0zm189.98 -321.22l-64.7 0 0 321.22 184.47 0 0 -56.44 -119.77 0 0 -264.78zm274.41 327.65c100.04,0 152.35,-71.13 152.35,-167.04 0,-95.91 -52.31,-167.04 -152.35,-167.04 -100.95,0 -152.81,71.13 -152.81,167.04 0,95.91 51.85,167.04 152.81,167.04zm0 -56.44c-55.98,0 -88.11,-42.68 -88.11,-110.59 0,-58.28 24.32,-110.59 87.65,-110.59 63.33,0 87.65,52.31 87.65,110.59 0,57.36 -27.54,110.59 -87.19,110.59zm387.76 -6.43l-69.29 -264.78 -120.69 0 0 321.22 66.54 0 0 -265.24 5.51 0 63.79 265.24 124.81 0 0 -321.22 -64.7 0 0 264.78 -5.97 0z"/>
    <path class="fil1" d="M1042.3 2785.17l-31.52 -120.44 -54.9 0 0 146.11 30.27 0 0 -120.65 2.5 0 29.02 120.65 56.78 0 0 -146.11 -29.43 0 0 120.44 -2.72 0zm104.79 28.6c29.64,0 48.64,-17.74 52.81,-39.87l-26.72 0c-2.71,10.85 -13.99,15.87 -26.09,15.87 -18.99,0 -28.39,-13.99 -27.76,-28.81l78.48 0c2.09,0 3.13,-0.83 3.13,-3.13 1.88,-35.48 -18.58,-60.95 -53.86,-60.95 -37.15,0 -56.57,29.85 -56.57,58.44 0,28.39 19.41,58.45 56.57,58.45zm-26.3 -71.39c2.3,-12.31 12.73,-20.04 25.46,-20.04 12.74,0 24.22,6.89 26.3,20.04l-51.77 0zm136.72 -0.42l-0.63 0 -23.38 -42.37 -29.02 0 30.69 55.73 -30.69 55.52 29.02 0 23.38 -42.37 0.83 0 23.38 42.37 29.02 0 -30.89 -55.52 30.69 -55.73 -29.02 0 -23.38 42.37zm140.48 -42.37l0 60.95c0,18.37 -12.94,27.55 -26.93,27.55 -14.61,0 -20.87,-10.44 -20.67,-29.01l0 -59.49 -29.43 0 0 64.29c0,27.14 8.77,49.89 42.79,49.89 12.73,0 30.27,-8.98 34.24,-16.91l0 13.98 29.43 0 0 -111.26 -29.43 0zm146.11 81.41c0,-21.29 -18.57,-30.06 -36.94,-34.02 -16.07,-3.34 -30.69,-6.89 -30.69,-15.03 0,-7.09 7.09,-10.23 19.41,-9.81 12.94,0.21 19,8.14 17.74,16.28l27.97 0c0,-23.17 -16.7,-41.54 -46.96,-41.54 -26.72,0 -46.55,11.06 -47.18,32.56 -0.63,21.71 15.03,28.18 33.81,33.81 16.28,4.59 34.44,7.31 34.44,15.24 0,7.72 -6.89,10.65 -19,10.44 -12.11,-0.21 -23.38,-3.96 -23.38,-16.91l-29.22 0c0,25.26 22.54,41.75 54.69,41.75 28.81,0 45.3,-9.19 45.3,-32.77z"/>
    <rect class="fil0" x="268.33" y="2727.22" width="568.3" height="24.05"/>
   </g>
  </g>
 </g>
</svg>
